<svg width="400" height="400" viewBox="0 0 400 400" fill="none" xmlns="http://www.w3.org/2000/svg">
<g clip-path="url(#clip0_2132_1395)">
<path d="M236.75 86.4784C261.976 86.4784 284.661 92.2356 304.579 103.937H304.578C324.377 115.265 339.895 131.143 351.051 151.43C362.6 171.574 368.254 194.783 368.254 220.813C368.254 246.544 362.75 269.714 351.546 290.118L351.521 290.163C340.348 310.188 324.818 326.064 305.03 337.689L304.99 337.713L304.949 337.736C285.03 349.113 262.221 354.692 236.75 354.692C211.278 354.692 188.469 349.113 168.55 337.736L168.509 337.713L168.469 337.689C148.7 326.075 133.04 310.225 121.573 290.243L121.537 290.181L121.502 290.118C114.043 276.532 109.111 261.72 106.647 245.742H56.9849C49.1964 245.742 42.2363 243.313 36.7798 238.073L36.2563 237.557C30.7328 231.968 28.2026 224.772 28.2026 216.711C28.2026 208.65 30.7328 201.454 36.2563 195.865L36.7798 195.349C42.2364 190.109 49.1962 187.68 56.9849 187.68H108.104C110.847 174.698 115.308 162.613 121.528 151.464L121.537 151.447L121.546 151.43C133 131.148 148.663 115.269 168.469 103.937L169.406 103.393C189.116 92.0493 211.639 86.4784 236.75 86.4784ZM236.75 142.719C222.813 142.719 210.72 145.856 200.254 151.955L199.248 152.555C188.47 159.097 179.941 168.232 173.64 180.15L173.623 180.182L173.605 180.216C167.384 191.709 164.16 205.17 164.16 220.813C164.16 236.457 167.384 249.917 173.605 261.411L174.202 262.493C180.429 273.59 188.764 282.252 199.248 288.617L200.254 289.217C210.72 295.316 222.813 298.453 236.75 298.453C251.136 298.453 263.557 295.11 274.252 288.617L275.256 287.995C285.564 281.501 293.584 272.727 299.378 261.535L299.41 261.473L299.444 261.411C305.664 249.917 308.889 236.457 308.889 220.813C308.889 205.17 305.664 191.709 299.444 180.216L299.393 180.122L299.345 180.027C293.538 168.543 285.519 159.65 275.252 153.174L274.252 152.555C263.557 146.062 251.136 142.719 236.75 142.719Z" fill="#E56B2E" stroke="#E56B2E" stroke-width="15.2123"/>
<path d="M74.7681 152.638C74.7681 111.344 41.2933 77.8696 0.000203817 77.8696V77.8696L0.000203817 283.702C0.000203817 324.996 33.4749 358.47 74.7681 358.47V358.47L74.7681 152.638Z" fill="#E56B2E"/>
<path d="M119.925 80.5367C118.741 63.011 136.972 50.7752 152.742 58.5122L227.169 95.0271C242.939 102.764 244.419 124.671 229.834 134.46L160.998 180.658C146.412 190.446 126.7 180.775 125.516 163.249L119.925 80.5367Z" fill="#E56B2E"/>
<path d="M396.94 109.03C402.018 92.2138 386.988 76.2072 369.886 80.2177L289.174 99.1452C272.072 103.156 265.725 124.175 277.749 136.981L334.497 197.415C346.521 210.221 367.898 205.207 372.976 188.392L396.94 109.03Z" fill="#E56B2E"/>
</g>
<defs>
<clipPath id="clip0_2132_1395">
<rect width="400" height="400" fill="white"/>
</clipPath>
</defs>
</svg>
