<svg width="656" height="643" viewBox="0 0 656 643" fill="none" xmlns="http://www.w3.org/2000/svg">
<path d="M366.51 483.13C349.961 443.191 304.168 424.231 264.23 440.78L289.654 502.137C306.204 542.075 351.996 561.036 391.934 544.487L366.51 483.13Z" fill="#FF8F40"/>
<mask id="mask0_2082_6599" style="mask-type:alpha" maskUnits="userSpaceOnUse" x="264" y="434" width="128" height="117">
<path d="M366.509 483.13C349.96 443.192 304.168 424.231 264.229 440.78L289.654 502.137C306.203 542.076 351.995 561.036 391.933 544.487L366.509 483.13Z" fill="#FF8F40"/>
</mask>
<g mask="url(#mask0_2082_6599)">
<path d="M301.911 421.946C290.555 411.547 272.919 412.322 262.52 423.678L259.182 427.323C248.783 438.678 249.559 456.314 260.914 466.714C272.27 477.113 289.906 476.337 300.305 464.982L303.643 461.337C314.042 449.981 313.267 432.345 301.911 421.946Z" fill="#FFDCC3"/>
</g>
<rect x="265.4" y="529.876" width="42.1493" height="110.391" fill="#9A4318"/>
<path d="M313.57 602.132C313.57 593.264 306.381 586.075 297.513 586.075H257.371C235.201 586.075 217.229 604.048 217.229 626.218V634.246C217.229 638.68 220.824 642.274 225.258 642.274H305.542C309.976 642.274 313.57 638.68 313.57 634.246V602.132Z" fill="#3D0000"/>
<rect x="347.691" y="529.876" width="42.1493" height="110.391" fill="#9A4318"/>
<path d="M341.67 602.132C341.67 593.264 348.859 586.075 357.727 586.075H397.869C420.039 586.075 438.011 604.048 438.011 626.218V634.246C438.011 638.68 434.417 642.274 429.983 642.274H349.698C345.264 642.274 341.67 638.68 341.67 634.246V602.132Z" fill="#3D0000"/>
<rect width="42.1493" height="124.95" transform="matrix(-0.642788 -0.766044 -0.766044 0.642788 327.344 443.658)" fill="#E56B2E"/>
<rect width="80.2843" height="70.2487" rx="35.1244" transform="matrix(0.400058 0.91649 0.91649 -0.400058 147.712 492.681)" fill="#3D0000"/>
<path d="M149.781 502.931C148.435 503.673 148.387 505.59 149.695 506.398L167.276 517.247C168.594 518.06 170.298 517.137 170.336 515.589L170.852 494.773C170.89 493.225 169.234 492.218 167.877 492.965L149.781 502.931Z" fill="#3D0000"/>
<path d="M153.824 534.278C152.907 535.521 153.68 537.291 155.215 537.464L175.943 539.796C177.478 539.969 178.625 538.414 178.007 536.998L169.662 517.882C169.044 516.466 167.125 516.25 166.208 517.493L153.824 534.278Z" fill="#3D0000"/>
<path d="M174.259 556.72C173.962 558.228 175.4 559.497 176.859 559.013L196.471 552.52C197.942 552.033 198.33 550.134 197.168 549.109L181.554 535.335C180.392 534.31 178.557 534.932 178.257 536.452L174.259 556.72Z" fill="#3D0000"/>
<rect width="14.0497" height="16.0569" rx="7.02487" transform="matrix(0.400058 0.91649 0.91649 -0.400058 168.72 520.74)" fill="#E56B2E"/>
<path d="M202.53 488.462C193.968 492.199 190.057 502.17 193.794 510.731L197.926 520.195C201.663 528.757 211.633 532.668 220.195 528.931C223.049 527.685 224.352 524.362 223.107 521.508L209.953 491.374C208.707 488.52 205.384 487.216 202.53 488.462Z" fill="#E56B2E"/>
<rect width="14.0497" height="16.0569" rx="7.02487" transform="matrix(0.400058 0.91649 0.91649 -0.400058 185.946 535.12)" fill="#E56B2E"/>
<rect width="14.0497" height="16.0569" rx="7.02487" transform="matrix(0.400058 0.91649 0.91649 -0.400058 168.049 499.134)" fill="#E56B2E"/>
<rect x="361.344" y="470.547" width="42.1493" height="71.6128" transform="rotate(-50 361.344 470.547)" fill="#E56B2E"/>
<path d="M247.229 491.741C247.229 447.402 283.174 411.457 327.514 411.457C371.854 411.457 407.798 447.402 407.798 491.741V505.791C407.798 527.961 389.826 545.933 367.656 545.933H287.372C265.202 545.933 247.229 527.961 247.229 505.791V491.741Z" fill="#FF8F40"/>
<rect x="281.351" y="418.181" width="92.3269" height="84.0476" rx="40.1421" fill="#FFDCC3"/>
<path d="M164.838 109.293C137.509 100.76 123.845 96.4927 115.415 103.681C106.985 110.869 109.038 125.036 113.146 153.37L123.033 221.569C127.644 253.376 129.95 269.28 141.036 273.457C152.122 277.635 164.35 267.209 188.806 246.355L244.698 198.697C269.154 177.843 281.382 167.417 279.009 155.81C276.636 144.203 261.296 139.413 230.618 129.834L164.838 109.293Z" fill="#E56B2E"/>
<path d="M182.788 150.819C166.391 145.699 158.192 143.139 153.134 147.452C148.076 151.765 149.308 160.265 151.773 177.265L158.179 221.453C160.946 240.537 162.329 250.079 168.981 252.586C175.632 255.092 182.969 248.836 197.642 236.325L233.857 205.445C248.53 192.933 255.867 186.677 254.443 179.713C253.019 172.749 243.815 169.875 225.408 164.128L182.788 150.819Z" fill="#FFDCC3"/>
<path d="M491.163 109.293C518.492 100.76 532.156 96.4927 540.586 103.681C549.016 110.869 546.963 125.036 542.855 153.37L532.968 221.569C528.357 253.376 526.051 269.28 514.965 273.457C503.879 277.635 491.651 267.209 467.195 246.355L411.303 198.697C386.847 177.843 374.619 167.417 376.992 155.81C379.365 144.203 394.705 139.413 425.383 129.834L491.163 109.293Z" fill="#E56B2E"/>
<path d="M473.213 150.819C489.61 145.699 497.809 143.138 502.867 147.451C507.925 151.764 506.693 160.264 504.228 177.265L497.822 221.453C495.055 240.537 493.672 250.079 487.02 252.586C480.369 255.092 473.032 248.836 458.359 236.324L422.144 205.445C407.471 192.933 400.134 186.677 401.558 179.713C402.982 172.749 412.186 169.875 430.593 164.127L473.213 150.819Z" fill="#FFDCC3"/>
<path d="M126.678 327.342C126.678 216.492 216.539 126.631 327.388 126.631C438.238 126.631 528.099 216.492 528.099 327.342V346.765C528.099 391.463 491.865 427.697 447.167 427.697H207.609C162.912 427.697 126.678 391.463 126.678 346.765V327.342Z" fill="#FF8F40"/>
<mask id="mask1_2082_6599" style="mask-type:alpha" maskUnits="userSpaceOnUse" x="126" y="126" width="403" height="302">
<path d="M126.678 327.342C126.678 216.492 216.539 126.631 327.388 126.631C438.238 126.631 528.099 216.492 528.099 327.342V346.765C528.099 391.463 491.865 427.697 447.167 427.697H207.61C162.912 427.697 126.678 391.463 126.678 346.765V327.342Z" fill="#FF8F40"/>
</mask>
<g mask="url(#mask1_2082_6599)">
<path d="M311.332 371.11C311.332 305.923 258.488 253.079 193.3 253.079C131.011 253.079 80.5147 303.575 80.5147 365.864V414.182C80.5147 449.359 109.031 477.875 144.207 477.875H249.694C283.736 477.875 311.332 450.279 311.332 416.237V371.11Z" fill="white"/>
<path d="M343.445 371.11C343.445 305.923 396.29 253.079 461.477 253.079C523.767 253.079 574.263 303.575 574.263 365.864V414.182C574.263 449.359 545.747 477.875 510.57 477.875H405.083C371.041 477.875 343.445 450.279 343.445 416.237V371.11Z" fill="white"/>
<rect width="230.817" height="90.3198" transform="matrix(-1 0 0 1 443.801 373.505)" fill="white"/>
<rect width="40.1421" height="30.1066" rx="15.0533" transform="matrix(-1 0 0 1 347.46 349.42)" fill="#9A4318"/>
<rect width="32.1137" height="60.2132" rx="16.0569" transform="matrix(-1 0 0 1 227.033 307.271)" fill="#3D0000"/>
<rect width="32.1137" height="60.2132" rx="16.0569" transform="matrix(-1 0 0 1 459.857 307.271)" fill="#3D0000"/>
<path d="M310.229 397H345.229V397.5C345.229 407.165 337.394 415 327.729 415C318.065 415 310.229 407.165 310.229 397.5V397Z" fill="#E6457B"/>
<path d="M307.317 389.71C312.627 397.545 318.952 401.679 327.393 391.772" stroke="#3D0000" stroke-width="8.45883" stroke-miterlimit="10" stroke-linecap="round"/>
<path d="M347.459 389.562C342.15 397.397 335.824 401.531 327.384 391.624" stroke="#3D0000" stroke-width="8.45883" stroke-miterlimit="10" stroke-linecap="round"/>
</g>
<path d="M399.728 454.885C395.081 456.35 390.508 458.515 386.797 461.131C373.102 471.231 367.522 490.332 372.741 506.747C377.68 522.529 393.21 534.968 410.222 535.381C417.456 535.989 425.221 533.539 431.996 531.402C444.809 527.36 448.485 511.028 459.883 508.155C470.865 503.967 483.248 515.233 496.061 511.19C502.836 509.053 510.602 506.603 516.173 501.955C529.871 491.854 535.448 472.755 530.44 456.995C525.291 440.558 509.763 428.117 492.748 427.705C488.187 427.699 483.23 428.541 478.577 430.009L471.185 432.341L407.12 452.552L401.987 454.172L399.728 454.885Z" fill="#95A5A6"/>
<path d="M397.654 448.314C393.008 449.78 388.434 451.945 384.724 454.56C371.029 464.661 365.449 483.761 370.668 500.177C375.607 515.958 391.137 528.398 408.149 528.811C415.383 529.419 423.148 526.969 429.923 524.832C442.736 520.789 446.412 504.457 457.809 501.584C468.792 497.397 481.175 508.662 493.988 504.62C500.762 502.483 508.529 500.032 514.1 495.385C527.797 485.284 533.375 466.185 528.367 450.425C523.217 433.988 507.689 421.546 490.675 421.134C486.114 421.128 481.156 421.97 476.504 423.438L469.112 425.77L405.047 445.982L399.913 447.601L397.654 448.314Z" fill="#BDC3C7"/>
<path d="M436.375 479.446C438.574 486.417 437.914 493.976 434.54 500.46C431.166 506.944 425.355 511.822 418.384 514.022C411.413 516.221 403.854 515.561 397.37 512.187C390.886 508.813 386.008 503.001 383.809 496.03C381.609 489.06 382.269 481.501 385.643 475.017C389.017 468.532 394.829 463.654 401.8 461.455C408.771 459.256 416.329 459.916 422.814 463.29C429.298 466.664 434.176 472.476 436.375 479.446Z" fill="#ECF0F1"/>
<path d="M403.874 468.026C400.245 469.171 398.132 472.728 399.376 476.67L401.449 483.241L394.878 485.314C391.249 486.459 389.136 490.015 390.38 493.958C391.417 497.243 395.395 499.601 399.024 498.456L405.595 496.383L407.668 502.953C408.704 506.239 412.682 508.596 416.312 507.451C419.941 506.306 421.846 502.093 420.809 498.807L418.736 492.237L425.307 490.164C428.936 489.019 430.841 484.805 429.805 481.52C428.561 477.577 424.79 475.877 421.161 477.022L414.59 479.095L412.517 472.524C411.274 468.582 407.503 466.881 403.874 468.026Z" fill="#7F8C8D"/>
<path d="M515.225 454.571C517.424 461.541 516.764 469.1 513.39 475.584C510.016 482.068 504.204 486.947 497.233 489.146C490.263 491.345 482.704 490.685 476.22 487.311C469.736 483.937 464.857 478.125 462.658 471.155C460.459 464.184 461.119 456.625 464.493 450.141C467.867 443.657 473.679 438.779 480.649 436.579C487.62 434.38 495.179 435.04 501.663 438.414C508.147 441.788 513.026 447.6 515.225 454.571Z" fill="#ECF0F1"/>
<path d="M482.372 464.935C482.922 466.678 482.757 468.568 481.913 470.189C481.07 471.81 479.617 473.029 477.874 473.579C476.131 474.129 474.242 473.964 472.621 473.12C471 472.277 469.78 470.824 469.23 469.081C468.68 467.339 468.845 465.449 469.689 463.828C470.532 462.207 471.985 460.987 473.728 460.438C475.471 459.888 477.36 460.053 478.981 460.896C480.602 461.74 481.822 463.193 482.372 464.935Z" fill="#27AE60"/>
<path d="M499.659 473.931C500.209 475.674 500.044 477.564 499.2 479.185C498.357 480.806 496.904 482.025 495.161 482.575C493.418 483.125 491.529 482.96 489.908 482.116C488.287 481.273 487.067 479.82 486.517 478.077C485.968 476.334 486.133 474.445 486.976 472.824C487.82 471.203 489.272 469.983 491.015 469.433C492.758 468.884 494.648 469.049 496.269 469.892C497.89 470.736 499.109 472.188 499.659 473.931Z" fill="#F39C12"/>
<path d="M491.368 447.648C491.918 449.391 491.753 451.281 490.909 452.902C490.066 454.523 488.613 455.742 486.87 456.292C485.127 456.842 483.238 456.677 481.617 455.833C479.996 454.99 478.776 453.537 478.226 451.794C477.677 450.052 477.842 448.162 478.685 446.541C479.529 444.92 480.981 443.7 482.724 443.15C484.467 442.601 486.357 442.766 487.978 443.609C489.599 444.453 490.818 445.906 491.368 447.648Z" fill="#2980B9"/>
<path d="M508.654 456.644C509.204 458.386 509.039 460.276 508.195 461.897C507.352 463.518 505.899 464.738 504.156 465.287C502.414 465.837 500.524 465.672 498.903 464.829C497.282 463.985 496.062 462.532 495.512 460.79C494.963 459.047 495.128 457.157 495.971 455.536C496.815 453.915 498.268 452.696 500.01 452.146C501.753 451.596 503.643 451.761 505.264 452.604C506.885 453.448 508.104 454.901 508.654 456.644Z" fill="#C0392B"/>
<path d="M446.232 476.337C444.418 476.909 443.411 478.846 443.983 480.659C444.555 482.473 446.491 483.48 448.305 482.908L454.876 480.835C456.689 480.263 457.697 478.327 457.124 476.513C456.552 474.7 454.616 473.692 452.803 474.264L446.232 476.337Z" fill="#7F8C8D"/>
<rect x="409.13" y="478.948" width="80.2843" height="70.2487" rx="35.1244" transform="rotate(-21.5784 409.13 478.948)" fill="#3D0000"/>
<path d="M417.825 473.138C417.393 471.663 418.711 470.27 420.208 470.62L440.324 475.323C441.832 475.676 442.39 477.532 441.325 478.657L427.013 493.78C425.948 494.906 424.064 494.452 423.629 492.965L417.825 473.138Z" fill="#3D0000"/>
<path d="M442.795 453.762C443.022 452.234 444.818 451.523 446.028 452.484L462.37 465.446C463.58 466.406 463.298 468.317 461.861 468.885L442.464 476.556C441.027 477.124 439.514 475.924 439.741 474.396L442.795 453.762Z" fill="#3D0000"/>
<path d="M473.11 452.258C473.962 450.979 475.877 451.094 476.571 452.465L485.898 470.898C486.597 472.281 485.534 473.9 483.987 473.808L463.203 472.565C461.656 472.473 460.793 470.738 461.652 469.449L473.11 452.258Z" fill="#3D0000"/>
</svg>
