<svg width="852" height="825" viewBox="0 0 852 825" fill="none" xmlns="http://www.w3.org/2000/svg">
<path d="M366.559 631.45C346.508 583.06 291.025 560.086 242.634 580.138L273.439 654.48C293.49 702.871 348.974 725.844 397.364 705.793L366.559 631.45Z" fill="#FF8F40"/>
<mask id="mask0_2015_384" style="mask-type:alpha" maskUnits="userSpaceOnUse" x="242" y="572" width="156" height="142">
<path d="M366.559 631.45C346.508 583.06 291.025 560.086 242.634 580.138L273.439 654.48C293.49 702.871 348.974 725.844 397.364 705.793L366.559 631.45Z" fill="#FF8F40"/>
</mask>
<g mask="url(#mask0_2015_384)">
<path d="M288.29 557.318C274.531 544.718 253.163 545.657 240.563 559.416L236.518 563.832C223.918 577.591 224.858 598.96 238.617 611.56C252.376 624.16 273.744 623.22 286.344 609.461L290.388 605.045C302.988 591.286 302.049 569.918 288.29 557.318Z" fill="#FFDCC3"/>
</g>
<rect x="375.77" y="688.09" width="51.0694" height="133.753" fill="#9A4318"/>
<path d="M434.135 775.638C434.135 764.893 425.424 756.183 414.68 756.183H366.042C339.18 756.183 317.405 777.958 317.405 804.82V814.548C317.405 819.92 321.76 824.275 327.132 824.275H424.407C429.78 824.275 434.135 819.92 434.135 814.548V775.638Z" fill="#3D0000"/>
<rect x="475.477" y="688.09" width="51.0694" height="133.753" fill="#9A4318"/>
<path d="M468.181 775.638C468.181 764.893 476.891 756.183 487.636 756.183H536.273C563.135 756.183 584.911 777.958 584.911 804.82V814.548C584.911 819.92 580.556 824.275 575.183 824.275H477.908C472.536 824.275 468.181 819.92 468.181 814.548V775.638Z" fill="#3D0000"/>
<rect width="51.0694" height="151.394" transform="matrix(-0.642788 -0.766044 -0.766044 0.642788 450.461 583.625)" fill="#E56B2E"/>
<rect width="97.2751" height="85.1157" rx="42.5579" transform="matrix(0.400058 0.91649 0.91649 -0.400058 232.812 643.022)" fill="#3D0000"/>
<path d="M235.32 655.443C233.689 656.341 233.632 658.664 235.216 659.642L256.518 672.788C258.115 673.773 260.179 672.655 260.226 670.778L260.85 645.558C260.897 643.681 258.89 642.462 257.246 643.368L235.32 655.443Z" fill="#3D0000"/>
<path d="M240.219 693.423C239.108 694.93 240.044 697.074 241.904 697.284L267.019 700.109C268.879 700.318 270.268 698.435 269.519 696.719L259.409 673.557C258.66 671.841 256.335 671.58 255.223 673.086L240.219 693.423Z" fill="#3D0000"/>
<path d="M264.978 720.614C264.618 722.441 266.361 723.979 268.129 723.394L291.891 715.526C293.673 714.936 294.143 712.635 292.735 711.393L273.816 694.704C272.409 693.462 270.185 694.215 269.822 696.057L264.978 720.614Z" fill="#3D0000"/>
<rect width="17.0231" height="19.455" rx="8.51157" transform="matrix(0.400058 0.91649 0.91649 -0.400058 258.266 677.02)" fill="#E56B2E"/>
<path d="M299.231 637.911C288.858 642.439 284.119 654.519 288.647 664.893L293.653 676.36C298.181 686.734 310.261 691.472 320.635 686.944C324.093 685.435 325.673 681.408 324.163 677.95L308.225 641.439C306.716 637.981 302.689 636.401 299.231 637.911Z" fill="#E56B2E"/>
<rect width="17.0231" height="19.455" rx="8.51157" transform="matrix(0.400058 0.91649 0.91649 -0.400058 279.139 694.444)" fill="#E56B2E"/>
<rect width="17.0231" height="19.455" rx="8.51157" transform="matrix(0.400058 0.91649 0.91649 -0.400058 257.453 650.841)" fill="#E56B2E"/>
<rect x="485.86" y="632.81" width="51.0694" height="151.394" transform="rotate(-112.612 485.86 632.81)" fill="#E56B2E"/>
<path d="M353.882 641.884C353.882 588.161 397.434 544.609 451.157 544.609C504.881 544.609 548.433 588.161 548.433 641.884V658.908C548.433 685.769 526.657 707.545 499.795 707.545H402.52C375.658 707.545 353.882 685.769 353.882 658.908V641.884Z" fill="#FF8F40"/>
<rect x="395.224" y="552.756" width="111.866" height="101.835" rx="48.6375" fill="#FFDCC3"/>
<path d="M213.978 203.3C179.86 197.036 162.8 193.903 153.713 203.783C144.625 213.662 149.169 230.401 158.256 263.879L180.128 344.46C190.329 382.041 195.43 400.832 209.375 404.234C223.32 407.636 236.502 393.306 262.864 364.646L323.115 299.144C349.478 270.483 362.66 256.153 358.107 242.54C353.553 228.927 334.403 225.411 296.102 218.379L213.978 203.3Z" fill="#E56B2E"/>
<path d="M241.646 250.619C221.175 246.86 210.939 244.981 205.487 250.908C200.034 256.836 202.76 266.879 208.212 286.966L222.384 339.176C228.505 361.725 231.565 372.999 239.932 375.041C248.299 377.082 256.208 368.484 272.026 351.288L311.064 308.847C326.881 291.651 334.79 283.053 332.058 274.885C329.327 266.718 317.836 264.608 294.856 260.388L241.646 250.619Z" fill="#FFDCC3"/>
<path d="M606.472 155.544C638.093 141.28 653.904 134.148 665.095 141.56C676.287 148.973 675.89 166.313 675.096 200.993L673.185 284.467C672.293 323.398 671.848 342.864 659.125 349.511C646.403 356.158 630.17 345.407 597.703 323.904L523.503 274.762C491.037 253.26 474.803 242.508 475.959 228.201C477.115 213.893 494.864 205.887 530.361 189.876L606.472 155.544Z" fill="#E56B2E"/>
<path d="M590.959 208.116C609.932 199.558 619.418 195.279 626.133 199.726C632.848 204.173 632.61 214.577 632.133 235.385L630.895 289.47C630.36 312.829 630.093 324.508 622.46 328.497C614.826 332.485 605.086 326.034 585.606 313.133L537.53 281.292C518.05 268.391 508.311 261.94 509.004 253.356C509.698 244.771 520.347 239.968 541.645 230.36L590.959 208.116Z" fill="#FFDCC3"/>
<path d="M199.992 471.145C183.77 337.82 278.701 216.587 412.026 200.365C545.352 184.142 666.585 279.073 682.807 412.399L685.65 435.761C692.191 489.521 653.912 538.405 600.152 544.946L312.021 580.005C258.261 586.546 209.376 548.268 202.835 494.507L199.992 471.145Z" fill="#FF8F40"/>
<mask id="mask1_2015_384" style="mask-type:alpha" maskUnits="userSpaceOnUse" x="198" y="198" width="489" height="383">
<path d="M199.993 471.145C183.771 337.82 278.701 216.587 412.027 200.365C545.352 184.142 666.585 279.073 682.808 412.399L685.65 435.761C692.191 489.521 653.913 538.405 600.153 544.946L312.021 580.005C258.261 586.546 209.377 548.268 202.836 494.507L199.993 471.145Z" fill="#FF8F40"/>
</mask>
<g mask="url(#mask1_2015_384)">
<path d="M428.493 496.765C418.953 418.361 347.66 362.535 269.256 372.075C194.336 381.19 140.991 449.315 150.107 524.235L157.178 582.35C162.326 624.659 200.797 654.783 243.106 649.635L369.982 634.198C410.926 629.216 440.079 591.986 435.097 551.042L428.493 496.765Z" fill="white"/>
<path d="M467.118 492.066C457.578 413.661 513.404 342.368 591.809 332.828C666.729 323.712 734.853 377.057 743.969 451.977L751.04 510.092C756.188 552.4 726.063 590.872 683.755 596.02L556.878 611.457C515.934 616.439 478.704 587.286 473.722 546.342L467.118 492.066Z" fill="white"/>
<rect width="279.666" height="109.434" transform="matrix(-0.992679 0.120785 0.120785 0.992679 588.172 480.259)" fill="white"/>
<rect width="48.6375" height="36.4782" rx="18.2391" transform="matrix(-0.992679 0.120785 0.120785 0.992679 468.772 465.39)" fill="#9A4318"/>
<rect width="38.91" height="72.9563" rx="19.455" transform="matrix(-0.992679 0.120785 0.120785 0.992679 317.759 432.318)" fill="#3D0000"/>
<rect width="38.91" height="72.9563" rx="19.455" transform="matrix(-0.992679 0.120785 0.120785 0.992679 597.792 398.245)" fill="#3D0000"/>
<path d="M426.387 519.723C433.919 528.37 442.133 532.417 450.834 519.265" stroke="#3D0000" stroke-width="10.249" stroke-miterlimit="10" stroke-linecap="round"/>
<path d="M474.647 513.671C469.408 523.872 462.404 529.77 450.803 519.089" stroke="#3D0000" stroke-width="10.249" stroke-miterlimit="10" stroke-linecap="round"/>
</g>
<rect x="609.372" y="466.2" width="117.807" height="103.081" rx="51.5407" transform="rotate(50.9698 609.372 466.2)" fill="#3D0000"/>
<path d="M622.062 475.327C623.61 474.292 625.699 475.31 625.839 477.167L628.24 509.164C628.38 511.036 626.437 512.354 624.75 511.533L595.674 497.371C593.987 496.549 593.827 494.206 595.388 493.163L622.062 475.327Z" fill="#3D0000"/>
<path d="M660.321 502.104C662.169 501.81 663.643 503.628 662.973 505.376L651.383 535.616C650.713 537.364 648.402 537.732 647.223 536.277L626.829 511.12C625.65 509.666 626.488 507.481 628.336 507.187L660.321 502.104Z" fill="#3D0000"/>
<path d="M675.734 544.262C677.522 544.782 678.085 547.037 676.752 548.337L653.784 570.744C652.44 572.055 650.181 571.414 649.726 569.593L641.886 538.217C641.431 536.396 643.123 534.768 644.925 535.293L675.734 544.262Z" fill="#3D0000"/>
<rect x="631.75" y="512.512" width="20.6163" height="23.5615" rx="10.3081" transform="rotate(50.9698 631.75 512.512)" fill="#E56B2E"/>
<path d="M566.872 534.775C577.52 526.142 593.151 527.777 601.783 538.425L611.325 550.196C619.958 560.845 618.323 576.475 607.675 585.108C604.125 587.985 598.915 587.44 596.038 583.891L565.655 546.412C562.777 542.862 563.322 537.652 566.872 534.775Z" fill="#E56B2E"/>
<rect x="638.856" y="544.664" width="20.6163" height="23.5615" rx="10.3081" transform="rotate(50.9698 638.856 544.664)" fill="#E56B2E"/>
<rect x="604.051" y="497.052" width="20.6163" height="23.5615" rx="10.3081" transform="rotate(50.9698 604.051 497.052)" fill="#E56B2E"/>
</svg>
