<svg width="400" height="409" viewBox="0 0 400 409" fill="none" xmlns="http://www.w3.org/2000/svg">
<ellipse cx="200.5" cy="394.5" rx="123.5" ry="14.5" fill="#E56B2E" fill-opacity="0.2"/>
<rect x="158.482" y="319.03" width="28.9333" height="75.7778" fill="#9A4318"/>
<path d="M191.547 368.63C191.547 362.543 186.612 357.608 180.525 357.608H152.969C137.751 357.608 125.414 369.945 125.414 385.163V390.675C125.414 393.718 127.881 396.186 130.925 396.186H186.036C189.079 396.186 191.547 393.718 191.547 390.675V368.63Z" fill="#3D0000"/>
<rect x="214.971" y="319.03" width="28.9333" height="75.7778" fill="#9A4318"/>
<path d="M210.836 368.631C210.836 362.544 215.771 357.609 221.858 357.609H249.414C264.632 357.609 276.969 369.946 276.969 385.164V390.676C276.969 393.719 274.502 396.187 271.458 396.187H216.347C213.303 396.187 210.836 393.719 210.836 390.676V368.631Z" fill="#3D0000"/>
<rect width="25.7183" height="76.2412" transform="matrix(-0.642785 -0.766046 -0.766043 0.64279 199.604 270.709)" fill="#E56B2E"/>
<rect width="48.9874" height="42.8638" rx="21.4319" transform="matrix(0.400056 0.916491 0.916489 -0.40006 89.9961 300.622)" fill="#3D0000"/>
<path d="M91.4881 306.749C90.564 307.258 90.5314 308.574 91.4292 309.128L101.706 315.471C102.611 316.029 103.781 315.395 103.807 314.332L104.108 302.164C104.135 301.101 102.998 300.41 102.066 300.923L91.4881 306.749Z" fill="#3D0000"/>
<path d="M93.8851 325.789C93.2554 326.643 93.7858 327.858 94.8398 327.977L106.96 329.34C108.014 329.459 108.801 328.392 108.377 327.42L103.497 316.241C103.073 315.269 101.756 315.121 101.126 315.974L93.8851 325.789Z" fill="#3D0000"/>
<path d="M106.247 339.439C106.043 340.474 107.031 341.345 108.032 341.014L119.496 337.218C120.506 336.883 120.772 335.58 119.975 334.877L110.847 326.824C110.05 326.121 108.79 326.548 108.584 327.591L106.247 339.439Z" fill="#3D0000"/>
<rect width="8.57279" height="9.79743" rx="4.28639" transform="matrix(0.400056 0.916491 0.916489 -0.40006 102.811 317.743)" fill="#E56B2E"/>
<path d="M123.442 298.047C118.217 300.327 115.831 306.411 118.111 311.635L120.632 317.41C122.913 322.634 128.996 325.02 134.22 322.74C135.962 321.98 136.757 319.952 135.997 318.21L127.971 299.823C127.211 298.082 125.183 297.287 123.442 298.047Z" fill="#E56B2E"/>
<rect width="8.57279" height="9.79743" rx="4.28639" transform="matrix(0.400056 0.916491 0.916489 -0.40006 113.324 326.517)" fill="#E56B2E"/>
<rect width="8.57279" height="9.79743" rx="4.28639" transform="matrix(0.400056 0.916491 0.916489 -0.40006 102.4 304.558)" fill="#E56B2E"/>
<rect width="25.7183" height="43.6961" transform="matrix(0.642785 -0.766046 0.766043 0.64279 220.348 287.115)" fill="#E56B2E"/>
<path d="M150.717 300.048C150.717 272.993 172.649 251.061 199.704 251.061C226.759 251.061 248.691 272.993 248.691 300.048V305.763C248.691 320.869 236.445 333.114 221.34 333.114H178.068C162.962 333.114 150.717 320.869 150.717 305.763V300.048Z" fill="#FF8F40"/>
<rect x="171.537" y="255.163" width="56.3352" height="51.2837" rx="25.6418" fill="#FFDCC3"/>
<path d="M105.079 68.1371C86.3195 62.2792 76.9397 59.3502 71.1528 64.2846C65.3659 69.219 66.7758 78.9439 69.5955 98.3938L74.135 129.706C77.3003 151.54 78.883 162.457 86.4929 165.325C94.1027 168.193 102.497 161.035 119.284 146.721L144.946 124.839C161.734 110.524 170.128 103.367 168.499 95.3995C166.87 87.432 156.34 84.144 135.281 77.5679L105.079 68.1371Z" fill="#E56B2E"/>
<path d="M114.181 92.8956C102.925 89.3808 97.2968 87.6234 93.8247 90.584C90.3525 93.5447 91.1984 99.3796 92.8903 111.05L95.9031 131.831C97.8023 144.932 98.7519 151.482 103.318 153.203C107.884 154.923 112.92 150.629 122.993 142.04L140.024 127.517C150.097 118.928 155.133 114.634 154.156 109.854C153.178 105.073 146.86 103.1 134.225 99.1547L114.181 92.8956Z" fill="#FFDCC3"/>
<path d="M294.923 68.1371C313.682 62.2792 323.062 59.3502 328.849 64.2846C334.636 69.219 333.226 78.9439 330.406 98.3938L325.867 129.706C322.702 151.54 321.119 162.457 313.509 165.325C305.899 168.193 297.505 161.035 280.718 146.721L255.056 124.839C238.268 110.524 229.874 103.367 231.503 95.3995C233.132 87.432 243.662 84.144 264.721 77.5679L294.923 68.1371Z" fill="#E56B2E"/>
<path d="M285.821 92.8956C297.077 89.3808 302.705 87.6234 306.177 90.584C309.649 93.5447 308.804 99.3796 307.112 111.05L304.099 131.831C302.2 144.932 301.25 151.482 296.684 153.203C292.118 154.923 287.082 150.629 277.009 142.04L259.978 127.517C249.905 118.928 244.869 114.634 245.846 109.854C246.824 105.073 253.141 103.1 265.777 99.1547L285.821 92.8956Z" fill="#FFDCC3"/>
<path d="M77.1602 199.735C77.1602 132.098 131.991 77.2671 199.628 77.2671C267.265 77.2671 322.096 132.098 322.096 199.735V211.587C322.096 238.861 299.986 260.97 272.713 260.97H126.543C99.2694 260.97 77.1602 238.861 77.1602 211.587V199.735Z" fill="#FF8F40"/>
<mask id="mask0_2082_6691" style="mask-type:alpha" maskUnits="userSpaceOnUse" x="77" y="77" width="246" height="184">
<path d="M77.1602 199.734C77.1602 132.097 131.991 77.2661 199.628 77.2661C267.265 77.2661 322.096 132.097 322.096 199.734V211.586C322.096 238.86 299.986 260.969 272.713 260.969H126.543C99.2694 260.969 77.1602 238.86 77.1602 211.586V199.734Z" fill="#FF8F40"/>
</mask>
<g mask="url(#mask0_2082_6691)">
<path d="M189.83 226.441C189.83 186.666 157.586 154.421 117.811 154.421C79.8033 154.421 48.9921 185.232 48.9921 223.24V252.723C48.9921 274.186 66.3919 291.586 87.8555 291.586H152.22C172.992 291.586 189.83 274.748 189.83 253.976V226.441Z" fill="white"/>
<path d="M209.428 226.441C209.428 186.666 241.672 154.421 281.447 154.421C319.455 154.421 350.266 185.232 350.266 223.24V252.723C350.266 274.186 332.866 291.586 311.402 291.586H247.037C226.266 291.586 209.428 274.748 209.428 253.976V226.441Z" fill="white"/>
<rect width="140.838" height="55.1108" transform="matrix(-1 0 0 1 270.658 227.902)" fill="white"/>
<rect width="24.4936" height="18.3703" rx="9.18514" transform="matrix(-1 0 0 1 211.873 213.206)" fill="#9A4318"/>
<rect width="19.5948" height="36.7406" rx="9.79742" transform="matrix(-1 0 0 1 138.395 187.488)" fill="#3D0000"/>
<rect width="19.5948" height="36.7406" rx="9.79742" transform="matrix(-1 0 0 1 280.461 187.488)" fill="#3D0000"/>
<path d="M189.158 242.238H210.514V242.543C210.514 248.441 205.733 253.221 199.836 253.221C193.939 253.221 189.158 248.441 189.158 242.543V242.238Z" fill="#E6457B"/>
<path d="M187.383 237.791C190.622 242.572 194.482 245.094 199.632 239.049" stroke="#3D0000" stroke-width="5.80656" stroke-miterlimit="10" stroke-linecap="round"/>
<path d="M211.874 237.7C208.635 242.481 204.775 245.004 199.625 238.958" stroke="#3D0000" stroke-width="5.80656" stroke-miterlimit="10" stroke-linecap="round"/>
</g>
<path d="M243.765 277.559C240.93 278.453 238.139 279.774 235.875 281.37C227.519 287.533 224.114 299.188 227.298 309.204C230.312 318.833 239.788 326.424 250.168 326.676C254.582 327.047 259.32 325.552 263.454 324.248C271.272 321.781 273.515 311.816 280.47 310.063C287.171 307.508 294.727 314.382 302.545 311.915C306.678 310.611 311.417 309.116 314.817 306.28C323.174 300.116 326.578 288.463 323.522 278.847C320.38 268.817 310.905 261.226 300.523 260.974C297.74 260.971 294.715 261.484 291.877 262.38L287.366 263.803L248.275 276.136L245.143 277.124L243.765 277.559Z" fill="#95A5A6"/>
<path d="M242.501 273.55C239.666 274.445 236.875 275.766 234.611 277.362C226.255 283.525 222.85 295.179 226.035 305.196C229.048 314.825 238.525 322.415 248.905 322.667C253.318 323.038 258.057 321.543 262.19 320.239C270.008 317.773 272.252 307.808 279.206 306.054C285.907 303.499 293.463 310.373 301.281 307.907C305.415 306.603 310.154 305.107 313.553 302.272C321.911 296.108 325.314 284.454 322.258 274.838C319.116 264.809 309.641 257.217 299.26 256.966C296.477 256.962 293.452 257.476 290.613 258.372L286.103 259.795L247.012 272.127L243.88 273.115L242.501 273.55Z" fill="#BDC3C7"/>
<path d="M266.13 292.546C267.472 296.799 267.069 301.411 265.011 305.368C262.952 309.324 259.406 312.301 255.152 313.643C250.899 314.984 246.287 314.582 242.33 312.523C238.374 310.464 235.397 306.918 234.056 302.665C232.714 298.411 233.116 293.799 235.175 289.843C237.234 285.886 240.78 282.91 245.033 281.568C249.287 280.226 253.899 280.629 257.855 282.687C261.812 284.746 264.788 288.292 266.13 292.546Z" fill="#ECF0F1"/>
<path d="M246.296 285.578C244.081 286.277 242.792 288.447 243.551 290.853L244.816 294.862L240.807 296.127C238.592 296.825 237.303 298.995 238.062 301.401C238.695 303.406 241.122 304.844 243.336 304.146L247.346 302.881L248.611 306.89C249.243 308.895 251.67 310.333 253.885 309.634C256.099 308.936 257.262 306.365 256.629 304.36L255.364 300.351L259.374 299.086C261.588 298.387 262.751 295.816 262.118 293.812C261.359 291.406 259.058 290.369 256.844 291.067L252.835 292.332L251.57 288.323C250.811 285.917 248.51 284.88 246.296 285.578Z" fill="#7F8C8D"/>
<path d="M314.24 277.367C315.581 281.62 315.179 286.233 313.12 290.189C311.061 294.145 307.515 297.122 303.262 298.464C299.008 299.806 294.396 299.403 290.44 297.344C286.483 295.286 283.507 291.739 282.165 287.486C280.823 283.233 281.226 278.62 283.285 274.664C285.343 270.708 288.889 267.731 293.143 266.389C297.396 265.047 302.008 265.45 305.965 267.509C309.921 269.568 312.898 273.114 314.24 277.367Z" fill="#ECF0F1"/>
<path d="M294.194 283.692C294.529 284.755 294.428 285.908 293.914 286.897C293.399 287.887 292.513 288.631 291.449 288.966C290.386 289.302 289.233 289.201 288.244 288.686C287.255 288.172 286.511 287.285 286.175 286.222C285.84 285.158 285.94 284.005 286.455 283.016C286.97 282.027 287.856 281.283 288.919 280.948C289.983 280.612 291.136 280.713 292.125 281.227C293.114 281.742 293.858 282.629 294.194 283.692Z" fill="#27AE60"/>
<path d="M304.742 289.181C305.078 290.245 304.977 291.398 304.463 292.387C303.948 293.376 303.061 294.12 301.998 294.455C300.935 294.791 299.782 294.69 298.793 294.176C297.803 293.661 297.059 292.774 296.724 291.711C296.388 290.648 296.489 289.495 297.004 288.505C297.518 287.516 298.405 286.772 299.468 286.437C300.532 286.101 301.685 286.202 302.674 286.717C303.663 287.231 304.407 288.118 304.742 289.181Z" fill="#F39C12"/>
<path d="M299.686 273.144C300.021 274.207 299.921 275.361 299.406 276.35C298.891 277.339 298.005 278.083 296.941 278.418C295.878 278.754 294.725 278.653 293.736 278.138C292.747 277.624 292.003 276.737 291.667 275.674C291.332 274.611 291.432 273.457 291.947 272.468C292.462 271.479 293.348 270.735 294.412 270.4C295.475 270.064 296.628 270.165 297.617 270.68C298.606 271.194 299.35 272.081 299.686 273.144Z" fill="#2980B9"/>
<path d="M310.233 278.632C310.568 279.696 310.468 280.849 309.953 281.838C309.438 282.827 308.552 283.571 307.488 283.907C306.425 284.242 305.272 284.141 304.283 283.627C303.294 283.112 302.55 282.226 302.214 281.162C301.879 280.099 301.979 278.946 302.494 277.957C303.009 276.968 303.895 276.223 304.959 275.888C306.022 275.552 307.175 275.653 308.164 276.168C309.153 276.683 309.897 277.569 310.233 278.632Z" fill="#C0392B"/>
<path d="M272.143 290.649C271.037 290.998 270.422 292.179 270.771 293.286C271.12 294.392 272.302 295.007 273.408 294.658L277.418 293.393C278.524 293.044 279.139 291.863 278.79 290.756C278.441 289.65 277.259 289.035 276.153 289.384L272.143 290.649Z" fill="#7F8C8D"/>
<rect width="48.9872" height="42.8639" rx="21.432" transform="matrix(0.929915 -0.367775 0.367772 0.929916 249.504 292.242)" fill="#3D0000"/>
<path d="M254.882 288.949C254.586 287.936 255.491 286.98 256.518 287.22L268.277 289.969C269.313 290.212 269.695 291.486 268.964 292.258L260.598 301.099C259.867 301.871 258.574 301.559 258.275 300.539L254.882 288.949Z" fill="#3D0000"/>
<path d="M270.009 277.136C270.165 276.087 271.398 275.6 272.228 276.259L281.784 283.838C282.615 284.498 282.421 285.809 281.435 286.199L270.093 290.685C269.106 291.075 268.068 290.251 268.223 289.202L270.009 277.136Z" fill="#3D0000"/>
<path d="M288.396 276.175C288.981 275.297 290.296 275.375 290.772 276.317L296.224 287.092C296.704 288.041 295.974 289.153 294.913 289.09L282.763 288.363C281.701 288.3 281.109 287.109 281.699 286.224L288.396 276.175Z" fill="#3D0000"/>
<path d="M87.5 358L109.5 395.5H77L68 358L87.5 381.5V358Z" fill="#A0D468"/>
<path d="M336 347L323.5 395.5H279.5L288 363L294 378.5L304 351.5L309.5 378.5L336 347Z" fill="#A0D468"/>
</svg>
