<svg width="852" height="825" viewBox="0 0 852 825" fill="none" xmlns="http://www.w3.org/2000/svg">
<path d="M366.558 631.45C346.507 583.06 291.024 560.086 242.633 580.138L273.438 654.48C293.489 702.871 348.973 725.844 397.363 705.793L366.558 631.45Z" fill="#FF8F40"/>
<mask id="mask0_2082_6697" style="mask-type:alpha" maskUnits="userSpaceOnUse" x="242" y="572" width="156" height="142">
<path d="M366.558 631.45C346.507 583.06 291.024 560.086 242.633 580.138L273.438 654.48C293.489 702.871 348.973 725.844 397.363 705.793L366.558 631.45Z" fill="#FF8F40"/>
</mask>
<g mask="url(#mask0_2082_6697)">
<path d="M288.29 557.318C274.531 544.718 253.163 545.657 240.563 559.416L236.518 563.832C223.918 577.591 224.858 598.959 238.617 611.559C252.376 624.16 273.744 623.22 286.344 609.461L290.388 605.045C302.988 591.286 302.049 569.918 288.29 557.318Z" fill="#FFDCC3"/>
</g>
<rect x="375.77" y="688.09" width="51.0694" height="133.753" fill="#9A4318"/>
<path d="M434.135 775.638C434.135 764.893 425.424 756.183 414.68 756.183H366.042C339.18 756.183 317.405 777.958 317.405 804.82V814.548C317.405 819.92 321.76 824.275 327.132 824.275H424.407C429.78 824.275 434.135 819.92 434.135 814.548V775.638Z" fill="#3D0000"/>
<rect x="475.477" y="688.09" width="51.0694" height="133.753" fill="#9A4318"/>
<path d="M468.181 775.638C468.181 764.893 476.891 756.183 487.636 756.183H536.273C563.135 756.183 584.911 777.958 584.911 804.82V814.548C584.911 819.92 580.556 824.275 575.183 824.275H477.908C472.536 824.275 468.181 819.92 468.181 814.548V775.638Z" fill="#3D0000"/>
<rect width="51.0694" height="151.394" transform="matrix(-0.642788 -0.766044 -0.766044 0.642788 450.46 583.625)" fill="#E56B2E"/>
<rect width="97.2751" height="85.1157" rx="42.5579" transform="matrix(0.400058 0.91649 0.91649 -0.400058 232.812 643.022)" fill="#3D0000"/>
<path d="M235.319 655.443C233.688 656.341 233.63 658.664 235.215 659.642L256.516 672.788C258.113 673.773 260.178 672.655 260.224 670.778L260.849 645.558C260.895 643.681 258.889 642.462 257.244 643.368L235.319 655.443Z" fill="#3D0000"/>
<path d="M240.218 693.423C239.107 694.93 240.043 697.074 241.903 697.284L267.018 700.109C268.878 700.318 270.267 698.435 269.518 696.719L259.408 673.557C258.659 671.841 256.334 671.58 255.222 673.086L240.218 693.423Z" fill="#3D0000"/>
<path d="M264.977 720.614C264.617 722.441 266.359 723.979 268.127 723.394L291.889 715.526C293.671 714.936 294.141 712.635 292.734 711.393L273.815 694.704C272.407 693.462 270.183 694.215 269.82 696.057L264.977 720.614Z" fill="#3D0000"/>
<rect width="17.0231" height="19.455" rx="8.51157" transform="matrix(0.400058 0.91649 0.91649 -0.400058 258.266 677.02)" fill="#E56B2E"/>
<path d="M299.231 637.911C288.858 642.439 284.119 654.519 288.647 664.893L293.653 676.36C298.181 686.734 310.261 691.472 320.635 686.944C324.093 685.435 325.673 681.408 324.163 677.95L308.225 641.439C306.716 637.981 302.689 636.401 299.231 637.911Z" fill="#E56B2E"/>
<rect width="17.0231" height="19.455" rx="8.51157" transform="matrix(0.400058 0.91649 0.91649 -0.400058 279.139 694.444)" fill="#E56B2E"/>
<rect width="17.0231" height="19.455" rx="8.51157" transform="matrix(0.400058 0.91649 0.91649 -0.400058 257.452 650.841)" fill="#E56B2E"/>
<rect x="485.86" y="632.81" width="51.0694" height="151.394" transform="rotate(-112.612 485.86 632.81)" fill="#E56B2E"/>
<path d="M353.882 641.884C353.882 588.161 397.433 544.609 451.157 544.609C504.88 544.609 548.432 588.161 548.432 641.884V658.908C548.432 685.769 526.656 707.545 499.794 707.545H402.519C375.658 707.545 353.882 685.769 353.882 658.908V641.884Z" fill="#FF8F40"/>
<rect x="395.224" y="552.756" width="111.866" height="101.835" rx="48.6375" fill="#FFDCC3"/>
<path d="M213.979 203.3C179.86 197.036 162.801 193.903 153.713 203.783C144.626 213.662 149.169 230.401 158.256 263.879L180.129 344.46C190.33 382.041 195.43 400.832 209.376 404.234C223.321 407.636 236.502 393.306 262.865 364.646L323.116 299.144C349.479 270.483 362.66 256.153 358.107 242.54C353.554 228.927 334.403 225.411 296.102 218.379L213.979 203.3Z" fill="#E56B2E"/>
<path d="M241.647 250.619C221.175 246.86 210.94 244.981 205.487 250.908C200.035 256.836 202.761 266.879 208.213 286.966L222.385 339.176C228.505 361.725 231.566 372.999 239.933 375.041C248.3 377.082 256.209 368.484 272.026 351.288L311.064 308.847C326.882 291.651 334.791 283.053 332.059 274.885C329.327 266.718 317.837 264.608 294.856 260.388L241.647 250.619Z" fill="#FFDCC3"/>
<path d="M606.472 155.544C638.093 141.28 653.904 134.148 665.095 141.56C676.287 148.973 675.89 166.313 675.096 200.993L673.185 284.467C672.293 323.398 671.848 342.864 659.125 349.511C646.403 356.158 630.17 345.407 597.703 323.904L523.503 274.762C491.037 253.26 474.803 242.508 475.959 228.201C477.115 213.893 494.864 205.887 530.361 189.876L606.472 155.544Z" fill="#E56B2E"/>
<path d="M590.959 208.116C609.931 199.558 619.418 195.279 626.133 199.726C632.848 204.173 632.609 214.577 632.133 235.385L630.895 289.47C630.36 312.829 630.092 324.508 622.459 328.497C614.826 332.485 605.086 326.034 585.606 313.133L537.53 281.292C518.05 268.391 508.31 261.94 509.004 253.356C509.697 244.771 520.346 239.968 541.644 230.36L590.959 208.116Z" fill="#FFDCC3"/>
<path d="M199.992 471.145C183.77 337.82 278.701 216.587 412.026 200.365C545.352 184.142 666.585 279.073 682.807 412.399L685.65 435.761C692.191 489.521 653.912 538.405 600.152 544.946L312.021 580.005C258.261 586.546 209.376 548.268 202.835 494.507L199.992 471.145Z" fill="#FF8F40"/>
<mask id="mask1_2082_6697" style="mask-type:alpha" maskUnits="userSpaceOnUse" x="198" y="198" width="489" height="383">
<path d="M199.993 471.145C183.771 337.82 278.702 216.587 412.027 200.364C545.353 184.142 666.586 279.073 682.808 412.398L685.651 435.76C692.192 489.521 653.913 538.405 600.153 544.946L312.022 580.005C258.262 586.546 209.377 548.267 202.836 494.507L199.993 471.145Z" fill="#FF8F40"/>
</mask>
<g mask="url(#mask1_2082_6697)">
<path d="M428.493 496.765C418.953 418.36 347.66 362.534 269.256 372.074C194.336 381.19 140.991 449.315 150.107 524.235L157.178 582.35C162.326 624.658 200.797 654.783 243.106 649.635L369.982 634.197C410.926 629.216 440.079 591.985 435.097 551.042L428.493 496.765Z" fill="white"/>
<path d="M467.118 492.065C457.578 413.661 513.404 342.367 591.809 332.828C666.729 323.712 734.853 377.056 743.969 451.976L751.04 510.091C756.188 552.4 726.063 590.871 683.755 596.019L556.878 611.457C515.934 616.439 478.704 587.286 473.722 546.342L467.118 492.065Z" fill="white"/>
<rect width="279.666" height="109.434" transform="matrix(-0.992679 0.120785 0.120785 0.992679 588.173 480.259)" fill="white"/>
<rect width="48.6375" height="36.4782" rx="18.2391" transform="matrix(-0.992679 0.120785 0.120785 0.992679 468.772 465.389)" fill="#9A4318"/>
<rect width="38.91" height="72.9563" rx="19.455" transform="matrix(-0.992679 0.120785 0.120785 0.992679 317.76 432.318)" fill="#3D0000"/>
<rect width="38.91" height="72.9563" rx="19.455" transform="matrix(-0.992679 0.120785 0.120785 0.992679 597.791 398.245)" fill="#3D0000"/>
</g>
<rect x="502.195" y="570.204" width="117.807" height="103.081" rx="51.5407" transform="rotate(-48.0384 502.195 570.204)" fill="#3D0000"/>
<path d="M509.222 556.241C507.957 554.874 508.635 552.651 510.447 552.223L541.675 544.841C543.501 544.409 545.108 546.122 544.56 547.917L535.125 578.851C534.578 580.647 532.289 581.171 531.014 579.793L509.222 556.241Z" fill="#3D0000"/>
<path d="M529.679 514.262C529.1 512.482 530.664 510.742 532.496 511.13L564.178 517.842C566.009 518.23 566.734 520.455 565.482 521.847L543.828 545.928C542.577 547.32 540.287 546.835 539.708 545.055L529.679 514.262Z" fill="#3D0000"/>
<path d="M568.903 492.438C569.137 490.591 571.276 489.681 572.769 490.794L598.496 509.971C600.001 511.093 599.722 513.424 597.995 514.159L568.233 526.815C566.506 527.55 564.633 526.134 564.869 524.271L568.903 492.438Z" fill="#3D0000"/>
<rect x="446.47" y="522.33" width="13.1862" height="20.9428" rx="6.59312" fill="#3D0000"/>
<mask id="path-37-outside-1_2082_6697" maskUnits="userSpaceOnUse" x="618.163" y="553.635" width="136.308" height="166.536" fill="black">
<rect fill="white" x="618.163" y="553.635" width="136.308" height="166.536"/>
<path d="M671.867 670.909C669.528 669.917 667.876 668.339 666.913 666.174C666.1 663.948 666.19 661.665 667.182 659.325C668.94 655.178 671.92 651.11 676.12 647.12C680.366 643.024 685.534 640.008 691.623 638.074C695.682 636.784 699.454 635.435 702.936 634.026C706.57 632.556 709.808 630.541 712.649 627.983C715.642 625.362 718.13 621.713 720.114 617.034C721.557 613.631 722.112 610.103 721.779 606.449C721.447 602.795 720.175 599.433 717.964 596.363C715.904 593.232 712.748 590.764 708.494 588.961C703.284 586.752 698.571 585.883 694.357 586.354C690.142 586.826 686.463 588.402 683.319 591.083C680.281 593.81 677.793 597.459 675.854 602.032C674.862 604.371 673.284 606.023 671.119 606.987C668.999 607.844 666.716 607.755 664.27 606.718C661.931 605.726 660.279 604.147 659.315 601.982C658.503 599.756 658.593 597.473 659.585 595.134C662.741 587.69 667.108 581.827 672.688 577.543C678.374 573.305 684.818 570.831 692.019 570.12C699.371 569.349 706.982 570.631 714.851 573.967C721.763 576.898 727.247 580.979 731.301 586.211C735.507 591.381 738.047 597.226 738.922 603.744C739.948 610.2 738.996 616.885 736.065 623.797C733.54 629.752 730.396 634.503 726.634 638.052C722.871 641.6 718.598 644.43 713.813 646.541C709.074 648.547 703.857 650.349 698.16 651.948C694.449 653.009 691.295 655.122 688.698 658.286C686.147 661.345 684.398 663.99 683.451 666.224C682.459 668.563 680.881 670.215 678.716 671.178C676.596 672.036 674.313 671.946 671.867 670.909ZM659.356 700.418C656.379 699.156 654.224 696.988 652.893 693.914C651.713 690.779 651.754 687.723 653.017 684.746C654.324 681.662 656.492 679.508 659.52 678.282C662.7 676.996 665.779 676.984 668.757 678.247C671.84 679.554 673.972 681.775 675.152 684.91C676.484 687.984 676.496 691.062 675.188 694.146C673.926 697.124 671.704 699.256 668.525 700.542C665.496 701.767 662.44 701.726 659.356 700.418Z"/>
</mask>
<path d="M671.867 670.909C669.528 669.917 667.876 668.339 666.913 666.174C666.1 663.948 666.19 661.665 667.182 659.325C668.94 655.178 671.92 651.11 676.12 647.12C680.366 643.024 685.534 640.008 691.623 638.074C695.682 636.784 699.454 635.435 702.936 634.026C706.57 632.556 709.808 630.541 712.649 627.983C715.642 625.362 718.13 621.713 720.114 617.034C721.557 613.631 722.112 610.103 721.779 606.449C721.447 602.795 720.175 599.433 717.964 596.363C715.904 593.232 712.748 590.764 708.494 588.961C703.284 586.752 698.571 585.883 694.357 586.354C690.142 586.826 686.463 588.402 683.319 591.083C680.281 593.81 677.793 597.459 675.854 602.032C674.862 604.371 673.284 606.023 671.119 606.987C668.999 607.844 666.716 607.755 664.27 606.718C661.931 605.726 660.279 604.147 659.315 601.982C658.503 599.756 658.593 597.473 659.585 595.134C662.741 587.69 667.108 581.827 672.688 577.543C678.374 573.305 684.818 570.831 692.019 570.12C699.371 569.349 706.982 570.631 714.851 573.967C721.763 576.898 727.247 580.979 731.301 586.211C735.507 591.381 738.047 597.226 738.922 603.744C739.948 610.2 738.996 616.885 736.065 623.797C733.54 629.752 730.396 634.503 726.634 638.052C722.871 641.6 718.598 644.43 713.813 646.541C709.074 648.547 703.857 650.349 698.16 651.948C694.449 653.009 691.295 655.122 688.698 658.286C686.147 661.345 684.398 663.99 683.451 666.224C682.459 668.563 680.881 670.215 678.716 671.178C676.596 672.036 674.313 671.946 671.867 670.909ZM659.356 700.418C656.379 699.156 654.224 696.988 652.893 693.914C651.713 690.779 651.754 687.723 653.017 684.746C654.324 681.662 656.492 679.508 659.52 678.282C662.7 676.996 665.779 676.984 668.757 678.247C671.84 679.554 673.972 681.775 675.152 684.91C676.484 687.984 676.496 691.062 675.188 694.146C673.926 697.124 671.704 699.256 668.525 700.542C665.496 701.767 662.44 701.726 659.356 700.418Z" fill="white"/>
<path d="M666.913 666.174L664.727 666.972L664.754 667.047L664.787 667.12L666.913 666.174ZM676.12 647.12L677.723 648.807L677.729 648.801L677.736 648.795L676.12 647.12ZM691.623 638.074L692.327 640.292L692.327 640.292L691.623 638.074ZM702.936 634.026L702.064 631.869L702.064 631.869L702.936 634.026ZM712.649 627.983L711.117 626.232L711.104 626.243L711.092 626.253L712.649 627.983ZM721.779 606.449L724.097 606.238L721.779 606.449ZM717.964 596.363L716.02 597.642L716.047 597.683L716.076 597.723L717.964 596.363ZM694.357 586.354L694.098 584.042L694.098 584.042L694.357 586.354ZM683.319 591.083L681.809 589.313L681.787 589.332L681.765 589.352L683.319 591.083ZM671.119 606.987L671.992 609.144L672.029 609.129L672.065 609.113L671.119 606.987ZM659.315 601.982L657.129 602.78L657.157 602.856L657.19 602.929L659.315 601.982ZM672.688 577.543L671.297 575.678L671.284 575.687L671.271 575.697L672.688 577.543ZM692.019 570.12L692.247 572.436L692.255 572.435L692.262 572.435L692.019 570.12ZM731.301 586.211L729.462 587.636L729.479 587.658L729.496 587.679L731.301 586.211ZM738.922 603.744L736.615 604.053L736.619 604.081L736.624 604.109L738.922 603.744ZM726.634 638.052L728.23 639.745L726.634 638.052ZM713.813 646.541L714.72 648.684L714.737 648.677L714.753 648.67L713.813 646.541ZM698.16 651.948L697.531 649.708L697.521 649.711L698.16 651.948ZM688.698 658.286L690.485 659.777L690.491 659.77L690.497 659.762L688.698 658.286ZM678.716 671.178L679.589 673.336L679.626 673.321L679.662 673.304L678.716 671.178ZM652.893 693.914L650.715 694.734L650.735 694.787L650.758 694.839L652.893 693.914ZM659.52 678.282L658.648 676.125L659.52 678.282ZM675.152 684.91L672.974 685.73L672.994 685.783L673.017 685.835L675.152 684.91ZM668.525 700.542L669.397 702.699L668.525 700.542ZM672.776 668.767C670.936 667.987 669.744 666.813 669.038 665.228L664.787 667.12C666.009 669.865 668.12 671.848 670.959 673.052L672.776 668.767ZM669.098 665.376C668.504 663.746 668.544 662.073 669.324 660.234L665.039 658.417C663.836 661.256 663.697 664.149 664.727 666.972L669.098 665.376ZM669.324 660.234C670.928 656.452 673.69 652.637 677.723 648.807L674.518 645.433C670.149 649.582 666.952 653.905 665.039 658.417L669.324 660.234ZM677.736 648.795C681.703 644.967 686.551 642.127 692.327 640.292L690.918 635.856C684.516 637.89 679.029 641.08 674.505 645.445L677.736 648.795ZM692.327 640.292C696.436 638.986 700.264 637.617 703.809 636.183L702.064 631.869C698.643 633.253 694.928 634.582 690.918 635.856L692.327 640.292ZM703.809 636.183C707.688 634.614 711.159 632.457 714.207 629.712L711.092 626.253C708.458 628.626 705.453 630.498 702.064 631.869L703.809 636.183ZM714.182 629.733C717.502 626.827 720.173 622.857 722.257 617.942L717.972 616.126C716.088 620.568 713.782 623.898 711.117 626.232L714.182 629.733ZM722.257 617.942C723.848 614.189 724.464 610.277 724.097 606.238L719.462 606.66C719.76 609.929 719.266 613.073 717.972 616.126L722.257 617.942ZM724.097 606.238C723.725 602.157 722.298 598.4 719.852 595.003L716.076 597.723C718.051 600.467 719.168 603.434 719.462 606.66L724.097 606.238ZM719.908 595.085C717.543 591.488 713.98 588.759 709.403 586.819L707.586 591.103C711.515 592.769 714.266 594.975 716.02 597.642L719.908 595.085ZM709.403 586.819C703.943 584.504 698.821 583.513 694.098 584.042L694.615 588.667C698.322 588.252 702.625 589 707.586 591.103L709.403 586.819ZM694.098 584.042C689.435 584.563 685.317 586.321 681.809 589.313L684.829 592.854C687.61 590.482 690.85 589.088 694.615 588.667L694.098 584.042ZM681.765 589.352C678.424 592.35 675.756 596.304 673.712 601.124L677.997 602.94C679.83 598.615 682.139 595.27 684.873 592.815L681.765 589.352ZM673.712 601.124C672.932 602.963 671.758 604.155 670.173 604.861L672.065 609.113C674.81 607.891 676.793 605.779 677.997 602.94L673.712 601.124ZM670.246 604.83C668.791 605.418 667.156 605.414 665.179 604.575L663.362 608.86C666.277 610.096 669.207 610.271 671.992 609.144L670.246 604.83ZM665.179 604.575C663.339 603.795 662.147 602.621 661.441 601.036L657.19 602.929C658.411 605.673 660.523 607.656 663.362 608.86L665.179 604.575ZM661.501 601.185C660.906 599.554 660.947 597.882 661.727 596.042L657.442 594.225C656.238 597.065 656.1 599.958 657.129 602.78L661.501 601.185ZM661.727 596.042C664.75 588.912 668.889 583.393 674.105 579.389L671.271 575.697C665.328 580.26 660.731 586.468 657.442 594.225L661.727 596.042ZM674.079 579.409C679.418 575.429 685.458 573.106 692.247 572.436L691.79 567.805C684.177 568.556 677.33 571.181 671.297 575.678L674.079 579.409ZM692.262 572.435C699.165 571.71 706.38 572.903 713.943 576.11L715.76 571.825C707.585 568.359 699.578 566.987 691.776 567.806L692.262 572.435ZM713.943 576.11C720.538 578.906 725.682 582.759 729.462 587.636L733.14 584.785C728.811 579.199 722.988 574.89 715.76 571.825L713.943 576.11ZM729.496 587.679C733.435 592.522 735.799 597.966 736.615 604.053L741.228 603.434C740.296 596.485 737.579 590.241 733.106 584.742L729.496 587.679ZM736.624 604.109C737.572 610.074 736.709 616.317 733.923 622.888L738.207 624.705C741.282 617.453 742.324 610.327 741.22 603.378L736.624 604.109ZM733.923 622.888C731.493 628.619 728.515 633.079 725.037 636.359L728.23 639.745C732.278 635.927 735.587 630.885 738.207 624.705L733.923 622.888ZM725.037 636.359C721.47 639.723 717.419 642.407 712.874 644.413L714.753 648.67C719.777 646.453 724.273 643.477 728.23 639.745L725.037 636.359ZM712.907 644.398C708.27 646.36 703.147 648.131 697.531 649.708L698.789 654.189C704.566 652.566 709.878 650.733 714.72 648.684L712.907 644.398ZM697.521 649.711C693.326 650.91 689.777 653.303 686.899 656.811L690.497 659.762C692.813 656.94 695.571 655.108 698.8 654.186L697.521 649.711ZM686.912 656.796C684.295 659.933 682.384 662.78 681.309 665.315L685.594 667.132C686.413 665.201 687.999 662.757 690.485 659.777L686.912 656.796ZM681.309 665.315C680.529 667.155 679.355 668.347 677.77 669.053L679.662 673.304C682.407 672.082 684.39 669.971 685.594 667.132L681.309 665.315ZM677.843 669.021C676.388 669.61 674.753 669.605 672.776 668.767L670.959 673.052C673.874 674.287 676.804 674.462 679.589 673.336L677.843 669.021ZM660.264 698.276C657.859 697.256 656.131 695.536 655.028 692.989L650.758 694.839C652.317 698.439 654.899 701.056 658.448 702.561L660.264 698.276ZM655.071 693.094C654.093 690.497 654.139 688.06 655.159 685.654L650.874 683.837C649.369 687.386 649.333 691.062 650.715 694.734L655.071 693.094ZM655.159 685.654C656.232 683.122 657.953 681.427 660.393 680.44L658.648 676.125C655.031 677.588 652.416 680.202 650.874 683.837L655.159 685.654ZM660.393 680.44C663.039 679.369 665.476 679.383 667.848 680.389L669.665 676.104C666.082 674.585 662.361 674.623 658.648 676.125L660.393 680.44ZM667.848 680.389C670.346 681.448 672.019 683.191 672.974 685.73L677.33 684.09C675.926 680.36 673.335 677.66 669.665 676.104L667.848 680.389ZM673.017 685.835C674.095 688.324 674.105 690.74 673.046 693.238L677.33 695.055C678.886 691.384 678.872 687.643 677.287 683.985L673.017 685.835ZM673.046 693.238C672.04 695.61 670.298 697.314 667.652 698.385L669.397 702.699C673.111 701.197 675.811 698.637 677.33 695.055L673.046 693.238ZM667.652 698.385C665.212 699.372 662.796 699.349 660.264 698.276L658.448 702.561C662.084 704.102 665.781 704.162 669.397 702.699L667.652 698.385Z" fill="white" mask="url(#path-37-outside-1_2082_6697)"/>
</svg>
