<svg width="350" height="347" viewBox="0 0 350 347" fill="none" xmlns="http://www.w3.org/2000/svg">
<path d="M50.5 306L72.5 343.5H40L31 306L50.5 329.5V306Z" fill="#A0D468"/>
<path d="M311 295L298.5 343.5H254.5L263 311L269 326.5L279 299.5L284.5 326.5L311 295Z" fill="#A0D468"/>
<rect y="341" width="350" height="6" rx="3" fill="#E6E9ED"/>
<g clip-path="url(#clip0_2122_1396)">
<path d="M135.52 283.03C125.263 258.275 96.8792 246.523 72.124 256.78L87.8829 294.812C98.1406 319.567 126.524 331.319 151.279 321.062L135.52 283.03Z" fill="#FF8F40"/>
<mask id="mask0_2122_1396" style="mask-type:alpha" maskUnits="userSpaceOnUse" x="72" y="253" width="80" height="72">
<path d="M135.52 283.03C125.263 258.275 96.8792 246.523 72.124 256.78L87.8829 294.812C98.1406 319.567 126.524 331.319 151.279 321.062L135.52 283.03Z" fill="#FF8F40"/>
</mask>
<g mask="url(#mask0_2122_1396)">
<path d="M95.48 245.107C88.4413 238.661 77.51 239.142 71.0642 246.18L68.9953 248.439C62.5495 255.478 63.0301 266.409 70.0688 272.855C77.1075 279.301 88.0388 278.82 94.4847 271.782L96.5535 269.523C102.999 262.484 102.519 251.553 95.48 245.107Z" fill="#FFDCC3"/>
</g>
<rect x="140.231" y="312.006" width="26.1256" height="68.4241" fill="#9A4318"/>
<rect x="191.239" y="312.006" width="26.1256" height="68.4241" fill="#9A4318"/>
<rect width="26.1256" height="77.4486" transform="matrix(-0.642788 -0.766044 -0.766044 0.642788 178.441 258.565)" fill="#E56B2E"/>
<rect width="49.763" height="43.5426" rx="21.7713" transform="matrix(0.400058 0.91649 0.91649 -0.400058 67.0986 288.951)" fill="#3D0000"/>
<path d="M68.3812 295.305C67.5467 295.764 67.5173 296.953 68.328 297.453L79.225 304.178C80.0422 304.682 81.0983 304.11 81.1221 303.15L81.4415 290.248C81.4652 289.288 80.4387 288.664 79.5976 289.127L68.3812 295.305Z" fill="#3D0000"/>
<path d="M70.8878 314.734C70.3193 315.505 70.7982 316.602 71.7499 316.709L84.5976 318.154C85.5493 318.261 86.26 317.298 85.8769 316.42L80.7046 304.571C80.3215 303.693 79.1319 303.56 78.5633 304.33L70.8878 314.734Z" fill="#3D0000"/>
<path d="M83.5538 328.645C83.3695 329.579 84.261 330.366 85.1654 330.066L97.3213 326.041C98.2329 325.739 98.4734 324.563 97.7533 323.927L88.0751 315.389C87.355 314.754 86.2173 315.139 86.0315 316.082L83.5538 328.645Z" fill="#3D0000"/>
<rect width="8.70852" height="9.9526" rx="4.35426" transform="matrix(0.400058 0.91649 0.91649 -0.400058 80.1201 306.343)" fill="#E56B2E"/>
<path d="M101.078 286.336C95.7708 288.653 93.3466 294.833 95.6631 300.14L98.2238 306.006C100.54 311.313 106.72 313.737 112.027 311.42C113.796 310.648 114.604 308.588 113.832 306.819L105.679 288.141C104.907 286.372 102.847 285.564 101.078 286.336Z" fill="#E56B2E"/>
<rect width="8.70852" height="9.9526" rx="4.35426" transform="matrix(0.400058 0.91649 0.91649 -0.400058 90.7979 315.256)" fill="#E56B2E"/>
<rect width="8.70852" height="9.9526" rx="4.35426" transform="matrix(0.400058 0.91649 0.91649 -0.400058 79.7041 292.951)" fill="#E56B2E"/>
<rect x="196.552" y="283.726" width="26.1256" height="77.4486" transform="rotate(-112.612 196.552 283.726)" fill="#E56B2E"/>
<path d="M129.035 288.368C129.035 260.885 151.315 238.605 178.798 238.605C206.281 238.605 228.561 260.885 228.561 288.368V297.077C228.561 310.819 217.421 321.958 203.68 321.958H153.917C140.175 321.958 129.035 310.819 129.035 297.077V288.368Z" fill="#FF8F40"/>
<rect x="150.185" y="242.773" width="57.2274" height="52.0956" rx="24.8815" fill="#FFDCC3"/>
<path d="M57.4657 64.0026C40.0115 60.7978 31.2844 59.1954 26.6355 64.2495C21.9866 69.3035 24.311 77.8667 28.9597 94.9929L40.149 136.215C45.3676 155.441 47.9768 165.054 55.1107 166.794C62.2446 168.535 68.9878 161.204 82.4742 146.542L113.297 113.033C126.783 98.3715 133.526 91.0406 131.197 84.0766C128.868 77.1127 119.071 75.3139 99.4776 71.7163L57.4657 64.0026Z" fill="#E56B2E"/>
<path d="M71.6194 88.2093C61.1469 86.2865 55.9106 85.3251 53.1213 88.3575C50.332 91.3899 51.7266 96.5278 54.5158 106.804L61.7656 133.513C64.8967 145.048 66.4623 150.816 70.7426 151.86C75.0229 152.904 79.0689 148.506 87.1607 139.709L107.131 117.997C115.223 109.2 119.269 104.802 117.872 100.623C116.474 96.4451 110.596 95.3658 98.8398 93.2073L71.6194 88.2093Z" fill="#FFDCC3"/>
<path d="M258.252 39.5714C274.428 32.2747 282.516 28.6263 288.242 32.4181C293.967 36.2098 293.764 45.0805 293.358 62.8218L292.38 105.525C291.924 125.441 291.696 135.399 285.188 138.799C278.679 142.2 270.375 136.7 253.766 125.7L215.807 100.56C199.199 89.5599 190.894 84.06 191.485 76.7407C192.077 69.4214 201.156 65.3258 219.316 57.1346L258.252 39.5714Z" fill="#E56B2E"/>
<path d="M250.316 66.4661C260.022 62.088 264.875 59.899 268.31 62.1741C271.745 64.4491 271.623 69.7715 271.379 80.4163L270.746 108.085C270.472 120.034 270.335 126.009 266.43 128.049C262.525 130.089 257.543 126.789 247.577 120.189L222.983 103.901C213.018 97.3008 208.035 94.0009 208.39 89.6093C208.745 85.2177 214.193 82.7604 225.088 77.8457L250.316 66.4661Z" fill="#FFDCC3"/>
<path d="M50.3097 201.023C42.0108 132.818 90.5745 70.7993 158.78 62.5003C226.985 54.2014 289.004 102.765 297.303 170.97L298.757 182.922C302.104 210.424 282.521 235.432 255.019 238.778L107.62 256.713C80.1179 260.059 55.1102 240.477 51.7639 212.975L50.3097 201.023Z" fill="#FF8F40"/>
<mask id="mask1_2122_1396" style="mask-type:alpha" maskUnits="userSpaceOnUse" x="49" y="61" width="251" height="197">
<path d="M50.3097 201.023C42.0108 132.818 90.5746 70.7993 158.78 62.5003C226.985 54.2014 289.004 102.765 297.303 170.97L298.757 182.922C302.104 210.424 282.521 235.432 255.019 238.778L107.62 256.713C80.1179 260.059 55.1102 240.477 51.7639 212.975L50.3097 201.023Z" fill="#FF8F40"/>
</mask>
<g mask="url(#mask1_2122_1396)">
<path d="M167.204 214.13C162.323 174.02 125.852 145.462 85.7427 150.342C47.416 155.005 20.1265 189.856 24.7899 228.183L28.4073 257.913C31.0408 279.556 50.7215 294.967 72.3653 292.334L137.271 284.436C158.217 281.888 173.131 262.842 170.582 241.896L167.204 214.13Z" fill="white"/>
<path d="M186.963 211.726C182.082 171.616 210.641 135.145 250.75 130.264C289.077 125.601 323.928 152.891 328.591 191.217L332.208 220.947C334.842 242.591 319.431 262.272 297.787 264.905L232.881 272.803C211.935 275.351 192.89 260.438 190.341 239.492L186.963 211.726Z" fill="white"/>
<rect width="143.069" height="55.9834" transform="matrix(-0.992679 0.120785 0.120785 0.992679 248.891 205.686)" fill="white"/>
<rect width="24.8815" height="18.6611" rx="9.33056" transform="matrix(-0.992679 0.120785 0.120785 0.992679 187.809 198.079)" fill="#9A4318"/>
<rect width="19.9052" height="37.3222" rx="9.9526" transform="matrix(-0.992679 0.120785 0.120785 0.992679 110.556 181.161)" fill="#3D0000"/>
<rect width="19.9052" height="37.3222" rx="9.9526" transform="matrix(-0.992679 0.120785 0.120785 0.992679 253.812 163.73)" fill="#3D0000"/>
<path d="M168.207 230.94L189.271 227.226L189.324 227.527C190.35 233.344 186.466 238.891 180.649 239.916C174.832 240.942 169.286 237.058 168.26 231.241L168.207 230.94Z" fill="#E6457B"/>
<path d="M166.125 225.875C169.978 230.298 174.18 232.368 178.632 225.64" stroke="#3D0000" stroke-width="5.24308" stroke-miterlimit="10" stroke-linecap="round"/>
<path d="M190.813 222.778C188.133 227.997 184.55 231.014 178.615 225.55" stroke="#3D0000" stroke-width="5.24308" stroke-miterlimit="10" stroke-linecap="round"/>
</g>
<rect x="259.736" y="198.494" width="60.2667" height="52.7334" rx="26.3667" transform="rotate(50.9698 259.736 198.494)" fill="#3D0000"/>
<path d="M266.228 203.163C267.02 202.633 268.089 203.154 268.16 204.104L269.388 220.473C269.46 221.43 268.466 222.105 267.603 221.684L252.729 214.439C251.866 214.019 251.784 212.82 252.582 212.287L266.228 203.163Z" fill="#3D0000"/>
<path d="M285.8 216.861C286.746 216.71 287.5 217.64 287.157 218.534L281.228 234.005C280.885 234.899 279.703 235.087 279.1 234.343L268.667 221.473C268.064 220.729 268.492 219.611 269.438 219.461L285.8 216.861Z" fill="#3D0000"/>
<path d="M293.684 238.427C294.599 238.694 294.887 239.847 294.205 240.512L282.456 251.975C281.768 252.646 280.613 252.318 280.38 251.386L276.369 235.335C276.136 234.404 277.002 233.571 277.924 233.839L293.684 238.427Z" fill="#3D0000"/>
<rect x="271.184" y="222.185" width="10.5467" height="12.0533" rx="5.27334" transform="rotate(50.9698 271.184 222.185)" fill="#E56B2E"/>
<path d="M237.995 233.574C243.442 229.158 251.438 229.994 255.854 235.442L260.736 241.463C265.152 246.911 264.316 254.907 258.868 259.323C257.052 260.795 254.387 260.516 252.915 258.7L237.372 239.527C235.9 237.711 236.179 235.046 237.995 233.574Z" fill="#E56B2E"/>
<rect x="274.82" y="238.633" width="10.5467" height="12.0533" rx="5.27334" transform="rotate(50.9698 274.82 238.633)" fill="#E56B2E"/>
<rect x="257.015" y="214.277" width="10.5467" height="12.0533" rx="5.27334" transform="rotate(50.9698 257.015 214.277)" fill="#E56B2E"/>
</g>
<defs>
<clipPath id="clip0_2122_1396">
<rect width="323" height="341" fill="white" transform="translate(14)"/>
</clipPath>
</defs>
</svg>
