<svg width="135" height="36" viewBox="0 0 135 36" fill="none" xmlns="http://www.w3.org/2000/svg">
<path d="M125.169 27.0146C123.435 27.0146 121.905 26.6357 120.578 25.8778C119.251 25.0983 118.203 24.0372 117.432 22.6947C116.683 21.3305 116.309 19.7714 116.309 18.0174C116.309 16.2418 116.683 14.6828 117.432 13.3402C118.203 11.976 119.251 10.915 120.578 10.1571C121.905 9.37756 123.435 8.98779 125.169 8.98779C126.881 8.98779 128.4 9.37756 129.727 10.1571C131.054 10.915 132.092 11.976 132.841 13.3402C133.611 14.6828 133.997 16.2418 133.997 18.0174C133.997 19.7714 133.622 21.3305 132.873 22.6947C132.124 24.0372 131.086 25.0983 129.759 25.8778C128.432 26.6357 126.902 27.0146 125.169 27.0146ZM125.169 24.0914C126.282 24.0914 127.266 23.8315 128.122 23.3118C128.978 22.7921 129.642 22.0775 130.112 21.1681C130.605 20.2586 130.851 19.2084 130.851 18.0174C130.851 16.8265 130.605 15.7763 130.112 14.8668C129.642 13.9357 128.978 13.2103 128.122 12.6906C127.266 12.1709 126.282 11.9111 125.169 11.9111C124.056 11.9111 123.071 12.1709 122.215 12.6906C121.359 13.2103 120.685 13.9357 120.193 14.8668C119.701 15.7763 119.455 16.8265 119.455 18.0174C119.455 19.2084 119.701 20.2586 120.193 21.1681C120.685 22.0775 121.359 22.7921 122.215 23.3118C123.071 23.8315 124.056 24.0914 125.169 24.0914Z" fill="#E56B2E"/>
<path d="M102.709 27.0468C101.232 27.0468 99.9056 26.7329 98.7286 26.1049C97.5729 25.4553 96.6526 24.5133 95.9678 23.2791C95.3044 22.0448 94.9727 20.529 94.9727 18.7318V10.7415C94.9727 10.2651 95.1225 9.87533 95.4221 9.57217C95.7431 9.24736 96.139 9.08496 96.6098 9.08496C97.0807 9.08496 97.4659 9.24736 97.7655 9.57217C98.0865 9.87533 98.247 10.2651 98.247 10.7415V18.7318C98.247 19.9444 98.4717 20.9513 98.9212 21.7525C99.3706 22.532 99.9805 23.1167 100.751 23.5064C101.521 23.8745 102.388 24.0586 103.351 24.0586C104.271 24.0586 105.085 23.8745 105.791 23.5064C106.519 23.1383 107.096 22.6403 107.524 22.0123C107.952 21.3844 108.166 20.6806 108.166 19.9011H110.189C110.189 21.2436 109.857 22.4562 109.194 23.5389C108.552 24.6216 107.664 25.4769 106.529 26.1049C105.416 26.7329 104.143 27.0468 102.709 27.0468ZM109.804 26.8844C109.333 26.8844 108.937 26.7329 108.616 26.4297C108.316 26.1049 108.166 25.7043 108.166 25.2279V10.7415C108.166 10.2434 108.316 9.84285 108.616 9.53969C108.937 9.23654 109.333 9.08496 109.804 9.08496C110.296 9.08496 110.692 9.23654 110.991 9.53969C111.291 9.84285 111.441 10.2434 111.441 10.7415V25.2279C111.441 25.7043 111.291 26.1049 110.991 26.4297C110.692 26.7329 110.296 26.8844 109.804 26.8844Z" fill="#E56B2E"/>
<path d="M74.3911 34.4852C73.9203 34.4852 73.5244 34.3228 73.2033 33.998C72.9037 33.6948 72.7539 33.3051 72.7539 32.8287V18.0174C72.7753 16.3068 73.1712 14.7694 73.9417 13.4052C74.7121 12.041 75.7608 10.9691 77.0876 10.1896C78.4145 9.38839 79.9126 8.98779 81.5819 8.98779C83.2726 8.98779 84.7814 9.38839 86.1082 10.1896C87.4351 10.9691 88.4838 12.041 89.2542 13.4052C90.046 14.7694 90.442 16.3068 90.442 18.0174C90.442 19.7281 90.0781 21.2655 89.3505 22.6297C88.6443 23.9723 87.6705 25.0441 86.4292 25.8453C85.188 26.6249 83.7862 27.0146 82.2239 27.0146C80.9613 27.0146 79.7949 26.7548 78.7248 26.2351C77.6762 25.6937 76.7773 24.9683 76.0283 24.0589V32.8287C76.0283 33.3051 75.8785 33.6948 75.5789 33.998C75.2792 34.3228 74.8833 34.4852 74.3911 34.4852ZM81.5819 24.0914C82.6733 24.0914 83.6471 23.8315 84.5031 23.3118C85.3592 22.7705 86.0333 22.0451 86.5256 21.1356C87.0392 20.2045 87.296 19.1651 87.296 18.0174C87.296 16.8481 87.0392 15.8088 86.5256 14.8993C86.0333 13.9682 85.3592 13.2428 84.5031 12.7231C83.6471 12.1817 82.6733 11.9111 81.5819 11.9111C80.5118 11.9111 79.5381 12.1817 78.6606 12.7231C77.8046 13.2428 77.1304 13.9682 76.6382 14.8993C76.146 15.8088 75.8999 16.8481 75.8999 18.0174C75.8999 19.1651 76.146 20.2045 76.6382 21.1356C77.1304 22.0451 77.8046 22.7705 78.6606 23.3118C79.5381 23.8315 80.5118 24.0914 81.5819 24.0914Z" fill="#E56B2E"/>
<path d="M59.0449 8.48779C60.8337 8.48779 62.4407 8.89554 63.8516 9.72314L64.1123 9.87744C65.3941 10.6679 66.4078 11.7422 67.1504 13.0913H67.1514C67.9712 14.52 68.373 16.1674 68.373 18.0171C68.373 19.8443 67.9819 21.4882 67.1875 22.9351L67.1855 22.938C66.3931 24.3583 65.2922 25.4845 63.8887 26.3091L63.8838 26.312C62.4717 27.1186 60.8535 27.5142 59.0449 27.5142C57.2363 27.5142 55.6182 27.1186 54.2061 26.312L54.2012 26.3091C52.799 25.4853 51.6884 24.3612 50.875 22.9438L50.8701 22.9351C50.3357 21.9616 49.9845 20.899 49.8115 19.7515H46.2363C45.7432 19.7515 45.2997 19.6129 44.9385 19.3169L44.7891 19.1812C44.4044 18.792 44.2275 18.2902 44.2275 17.7251C44.2275 17.16 44.4044 16.6582 44.7891 16.269L44.9385 16.1333C45.2997 15.8373 45.7432 15.6987 46.2363 15.6987H49.9121C50.1062 14.7648 50.4257 13.8962 50.8721 13.0962L50.873 13.0942L51.0293 12.8276C51.827 11.5141 52.887 10.4766 54.2061 9.72314C55.6179 8.89495 57.236 8.48779 59.0449 8.48779ZM59.0449 12.4106C58.1421 12.4106 57.3459 12.5948 56.6455 12.9536L56.3506 13.1177C55.576 13.588 54.963 14.2447 54.5107 15.1001L54.5088 15.105C54.0619 15.9308 53.8311 16.8968 53.8311 18.0171C53.8311 19.1377 54.0618 20.1042 54.5088 20.9302L54.6855 21.2339C55.1159 21.9232 55.6702 22.4711 56.3506 22.8843L56.6455 23.0493C57.3458 23.408 58.1422 23.5913 59.0449 23.5913C60.0768 23.5913 60.9699 23.3513 61.7393 22.8843L62.0215 22.6997C62.662 22.2493 63.169 21.6641 63.5449 20.938L63.5488 20.9302L63.7061 20.6138C64.0498 19.8602 64.2266 18.9976 64.2266 18.0171C64.2265 16.8967 63.9958 15.9308 63.5488 15.105L63.542 15.0923C63.1653 14.3474 62.659 13.7533 62.0205 13.3022L61.7393 13.1177C60.9699 12.6506 60.0768 12.4106 59.0449 12.4106Z" fill="#E56B2E" stroke="#E56B2E"/>
<path d="M31.1196 27.177C29.5145 27.177 28.1127 26.8847 26.9142 26.3C25.7372 25.7154 24.8169 24.8925 24.1535 23.8315C23.5114 22.7488 23.1904 21.482 23.1904 20.0312V10.7417C23.2332 10.287 23.4044 9.90804 23.7041 9.60489C24.0251 9.28008 24.3996 9.11768 24.8276 9.11768C25.2984 9.11768 25.6837 9.28008 25.9833 9.60489C26.3043 9.90804 26.4648 10.2978 26.4648 10.7742V14.412H31.7295C33.1206 14.412 34.3618 14.6611 35.4533 15.1591C36.5662 15.6355 37.4436 16.3392 38.0856 17.2704C38.7277 18.1798 39.0487 19.2733 39.0487 20.5509C39.0487 21.8285 38.717 22.9653 38.0535 23.9614C37.4115 24.9575 36.5019 25.7478 35.3249 26.3325C34.1478 26.8955 32.746 27.177 31.1196 27.177ZM31.0875 24.1238C32.4571 24.1238 33.6021 23.8315 34.5223 23.2468C35.4426 22.6405 35.9027 21.7419 35.9027 20.5509C35.9027 19.4249 35.5068 18.5912 34.715 18.0499C33.9231 17.4869 32.928 17.2054 31.7295 17.2054H26.4648V19.9663C26.4648 20.7458 26.6681 21.4495 27.0747 22.0775C27.4814 22.7055 28.0271 23.2035 28.7119 23.5716C29.4182 23.9397 30.21 24.1238 31.0875 24.1238Z" fill="#E56B2E"/>
<path d="M19.4293 26.4623C19.1297 26.7654 18.7231 26.9062 18.2095 26.8845C17.6958 26.8845 17.2892 26.7113 16.9896 26.3648L6.46023 13.9572L16.2834 2.06922C16.583 1.7011 16.9682 1.51705 17.439 1.51705C17.9312 1.49539 18.3272 1.6578 18.6268 2.00426C18.9264 2.35072 19.0655 2.71883 19.0441 3.1086C19.0441 3.47672 18.8943 3.83401 18.5947 4.18047L10.4729 13.7298L19.4293 24.2536C19.7289 24.6001 19.8895 24.9682 19.9109 25.3579C19.9537 25.7261 19.7931 26.0942 19.4293 26.4623ZM2.67222 26.8845C2.20139 26.8845 1.80547 26.7221 1.48446 26.3973C1.16344 26.0725 1.00293 25.6719 1.00293 25.1955V3.20605C1.00293 2.70801 1.16344 2.30741 1.48446 2.00426C1.80547 1.67945 2.20139 1.51705 2.67222 1.51705C3.16445 1.51705 3.56037 1.67945 3.85998 2.00426C4.181 2.30741 4.34151 2.70801 4.34151 3.20605V12.528H9.6062V15.5163H4.34151V25.1955C4.34151 25.6719 4.181 26.0725 3.85998 26.3973C3.56037 26.7221 3.16445 26.8845 2.67222 26.8845Z" fill="#E56B2E"/>
<path fill-rule="evenodd" clip-rule="evenodd" d="M120.578 25.8777C121.905 26.6356 123.435 27.0145 125.169 27.0145C126.902 27.0145 128.433 26.6356 129.759 25.8777C131.086 25.0981 132.124 24.0371 132.873 22.6946C133.622 21.3304 133.997 19.7713 133.997 18.0173C133.997 16.2417 133.612 14.6826 132.841 13.3401C132.092 11.9759 131.054 10.9149 129.727 10.157C128.4 9.37745 126.881 8.98768 125.169 8.98768C123.435 8.98768 121.905 9.37745 120.578 10.157C119.252 10.9149 118.203 11.9759 117.432 13.3401C116.683 14.6826 116.309 16.2417 116.309 18.0173C116.309 19.7713 116.683 21.3304 117.432 22.6946C118.203 24.0371 119.252 25.0981 120.578 25.8777ZM120.08 9.27619C121.577 8.3976 123.284 7.97266 125.169 7.97266C127.035 7.97266 128.73 8.39871 130.226 9.27619C131.711 10.1255 132.877 11.3189 133.714 12.8388C134.582 14.3553 135 16.0924 135 18.0173C135 19.922 134.592 21.6546 133.75 23.1875L133.747 23.1936C132.909 24.6946 131.743 25.8859 130.263 26.7555L130.253 26.7617C128.756 27.6167 127.051 28.0295 125.169 28.0295C123.287 28.0295 121.582 27.6167 120.085 26.7616L120.075 26.7555L120.075 26.7555C118.597 25.8873 117.423 24.6994 116.565 23.2042L116.56 23.1959L116.555 23.1875C115.714 21.6546 115.306 19.922 115.306 18.0173C115.306 16.0937 115.713 14.3577 116.559 12.8411L116.561 12.8365C117.419 11.3184 118.595 10.1257 120.08 9.27619ZM128.122 23.3117C127.266 23.8314 126.282 24.0912 125.169 24.0912C124.056 24.0912 123.072 23.8314 122.216 23.3117C121.36 22.792 120.685 22.0774 120.193 21.168C119.701 20.2585 119.455 19.2083 119.455 18.0173C119.455 16.8264 119.701 15.7762 120.193 14.8667C120.685 13.9356 121.36 13.2102 122.216 12.6905C123.072 12.1708 124.056 11.9109 125.169 11.9109C126.282 11.9109 127.266 12.1708 128.122 12.6905C128.978 13.2102 129.642 13.9356 130.113 14.8667C130.605 15.7762 130.851 16.8264 130.851 18.0173C130.851 19.2083 130.605 20.2585 130.113 21.168C129.642 22.0774 128.978 22.792 128.122 23.3117ZM129.228 20.6887L129.233 20.6804C129.633 19.9414 129.848 19.0635 129.848 18.0173C129.848 16.9712 129.633 16.0933 129.233 15.3542L129.226 15.3417L129.22 15.329C128.831 14.5606 128.295 13.9793 127.606 13.5609C126.923 13.1464 126.121 12.926 125.169 12.926C124.216 12.926 123.414 13.1464 122.732 13.5609C122.038 13.9817 121.488 14.5685 121.078 15.3454L121.073 15.3543C120.673 16.0933 120.458 16.9712 120.458 18.0173C120.458 19.0635 120.673 19.9414 121.073 20.6804C121.482 21.4363 122.033 22.0169 122.732 22.4413C123.414 22.8558 124.216 23.0762 125.169 23.0762C126.121 23.0762 126.923 22.8558 127.606 22.4413C128.301 22.0193 128.837 21.4441 129.224 20.697L129.228 20.6887Z" fill="#E56B2E"/>
<path fill-rule="evenodd" clip-rule="evenodd" d="M98.7288 26.1048C99.9059 26.7327 101.233 27.0467 102.709 27.0467C104.143 27.0467 105.417 26.7327 106.53 26.1048C106.763 25.9757 106.985 25.8371 107.198 25.6889C107.405 25.5443 107.602 25.3906 107.789 25.2278C107.92 25.1141 108.046 24.996 108.167 24.8735V25.2278C108.167 25.5406 108.231 25.8207 108.361 26.0682C108.428 26.1976 108.513 26.3181 108.616 26.4296C108.937 26.7327 109.333 26.8843 109.804 26.8843C110.296 26.8843 110.692 26.7327 110.992 26.4296C111.291 26.1048 111.441 25.7042 111.441 25.2278V10.7414C111.441 10.2433 111.291 9.84273 110.992 9.53958C110.692 9.23643 110.296 9.08485 109.804 9.08485C109.333 9.08485 108.937 9.23643 108.616 9.53958C108.317 9.84273 108.167 10.2433 108.167 10.7414V19.9009C108.167 20.6805 107.953 21.3842 107.525 22.0122C107.414 22.1742 107.294 22.3275 107.164 22.4722C106.789 22.8885 106.331 23.2332 105.791 23.5063C105.085 23.8744 104.272 24.0585 103.351 24.0585C102.388 24.0585 101.522 23.8744 100.751 23.5063C99.9808 23.1165 99.3708 22.5319 98.9214 21.7524C98.472 20.9512 98.2473 19.9443 98.2473 18.7316V10.7414C98.2473 10.265 98.0868 9.87521 97.7658 9.57206C97.4661 9.24725 97.0809 9.08485 96.6101 9.08485C96.1393 9.08485 95.7433 9.24725 95.4223 9.57206C95.1227 9.87521 94.9729 10.265 94.9729 10.7414V18.7316C94.9729 20.5289 95.3046 22.0447 95.9681 23.2789C96.6529 24.5132 97.5731 25.4552 98.7288 26.1048ZM98.4754 8.85406C98.9985 9.36097 99.2505 10.0179 99.2505 10.7414V18.7316C99.2505 19.8193 99.4519 20.639 99.7909 21.2461C100.143 21.8554 100.607 22.296 101.19 22.5934C101.808 22.8865 102.522 23.0435 103.351 23.0435C104.137 23.0435 104.789 22.8871 105.332 22.604L105.343 22.5984C105.931 22.3006 106.374 21.9119 106.699 21.4359C107.009 20.9813 107.164 20.4795 107.164 19.9009V10.7414C107.164 10.0212 107.389 9.34623 107.907 8.82185L107.919 8.80948L107.932 8.79754C108.453 8.30557 109.099 8.06982 109.804 8.06982C110.516 8.06982 111.183 8.29747 111.701 8.82185C112.219 9.34623 112.444 10.0212 112.444 10.7414V25.2278C112.444 25.9409 112.211 26.595 111.725 27.1222L111.713 27.1349L111.701 27.1473C111.183 27.6717 110.516 27.8993 109.804 27.8993C109.099 27.8993 108.453 27.6636 107.932 27.1716L107.906 27.1477L107.883 27.1222C107.753 26.9812 107.641 26.8311 107.547 26.6732C107.375 26.7853 107.197 26.892 107.015 26.9933C105.735 27.7143 104.291 28.0617 102.709 28.0617C101.088 28.0617 99.5975 27.7157 98.2609 27.0026L98.2512 26.9975L98.2416 26.9921C96.9139 26.2458 95.8636 25.1641 95.0933 23.7758L95.0867 23.7639C94.324 22.345 93.9697 20.6522 93.9697 18.7316V10.7414C93.9697 10.0286 94.2035 9.36983 94.713 8.85433C95.2298 8.33143 95.8842 8.06982 96.6101 8.06982C97.3252 8.06982 97.9744 8.32479 98.4754 8.85406Z" fill="#E56B2E"/>
<path fill-rule="evenodd" clip-rule="evenodd" d="M73.2036 33.9979C73.5246 34.3227 73.9205 34.4851 74.3913 34.4851C74.8836 34.4851 75.2795 34.3227 75.5791 33.9979C75.8787 33.6947 76.0285 33.305 76.0285 32.8286V24.0588C76.3374 24.4338 76.6718 24.7776 77.0317 25.0901C77.5444 25.5352 78.1089 25.9169 78.7251 26.235C79.7951 26.7547 80.9615 27.0145 82.2242 27.0145C83.7865 27.0145 85.1882 26.6247 86.4295 25.8452C87.6708 25.044 88.6445 23.9721 89.3508 22.6296C90.0784 21.2654 90.4422 19.728 90.4422 18.0173C90.4422 16.3067 90.0463 14.7693 89.2544 13.4051C88.484 12.0409 87.4353 10.969 86.1085 10.1895C84.7816 9.38828 83.2728 8.98768 81.5821 8.98768C79.9128 8.98768 78.4148 9.38828 77.0879 10.1895C75.761 10.969 74.7124 12.0409 73.9419 13.4051C73.1715 14.7693 72.7756 16.3067 72.7542 18.0173V32.8286C72.7542 33.305 72.904 33.6947 73.2036 33.9979ZM76.579 9.31473C75.0998 10.185 73.927 11.3857 73.0709 12.9015C72.2086 14.4283 71.7744 16.1373 71.7511 18.0045L71.751 32.8286C71.751 33.5414 71.9847 34.2001 72.4942 34.7156C73.011 35.2385 73.6655 35.5001 74.3913 35.5001C75.1189 35.5001 75.7888 35.2508 76.3007 34.7032C76.8017 34.1896 77.0317 33.5357 77.0317 32.8286V26.3788C77.4214 26.661 77.834 26.9145 78.2692 27.1391L78.28 27.1447L78.291 27.15C79.5051 27.7397 80.821 28.0295 82.2242 28.0295C83.9599 28.0295 85.5473 27.5939 86.9585 26.7076L86.969 26.7009C88.3583 25.8042 89.4494 24.6014 90.2349 23.1092C91.0486 21.5826 91.4454 19.8775 91.4454 18.0173C91.4454 16.1433 91.0101 14.4276 90.1226 12.8964C89.2668 11.383 88.095 10.184 86.6174 9.31473C85.1219 8.41307 83.4341 7.97266 81.5821 7.97266C79.749 7.97266 78.0724 8.41428 76.579 9.31473ZM84.5034 23.3117C83.6473 23.8314 82.6736 24.0912 81.5821 24.0912C80.5121 24.0912 79.5383 23.8314 78.6609 23.3117C77.8048 22.7704 77.1307 22.045 76.6385 21.1355C76.1462 20.2044 75.9001 19.165 75.9001 18.0173C75.9001 16.848 76.1462 15.8086 76.6385 14.8992C77.1307 13.9681 77.8048 13.2427 78.6609 12.723C79.5383 12.1816 80.5121 11.9109 81.5821 11.9109C82.6736 11.9109 83.6473 12.1816 84.5034 12.723C85.3594 13.2427 86.0336 13.9681 86.5258 14.8992C87.0394 15.8086 87.2962 16.848 87.2962 18.0173C87.2962 19.165 87.0394 20.2044 86.5258 21.1355C86.0336 22.045 85.3594 22.7704 84.5034 23.3117ZM83.9795 22.446C83.2955 22.8593 82.5058 23.0762 81.5821 23.0762C80.6857 23.0762 79.8925 22.862 79.1802 22.4431C78.4794 21.9971 77.929 21.4051 77.5206 20.6521C77.1145 19.882 76.9033 19.0108 76.9033 18.0173C76.9033 16.9963 77.1169 16.1285 77.5184 15.3867L77.5231 15.3779C77.9338 14.601 78.4837 14.0142 79.177 13.5934L79.1831 13.5896C79.8966 13.1494 80.6884 12.926 81.5821 12.926C82.5015 12.926 83.288 13.1514 83.9717 13.5837L83.9794 13.5886L83.9873 13.5933C84.6805 14.0142 85.2305 14.601 85.6412 15.3779L85.6478 15.3904L85.6548 15.4028C86.0721 16.1416 86.2931 17.0037 86.2931 18.0173C86.2931 19.0054 86.0737 19.8724 85.6498 20.6408L85.6459 20.648C85.2364 21.4045 84.6838 21.9989 83.9795 22.446Z" fill="#E56B2E"/>
<path fill-rule="evenodd" clip-rule="evenodd" d="M26.9145 26.2999C28.1129 26.8845 29.5147 27.1769 31.1198 27.1769C32.7463 27.1769 34.1481 26.8954 35.3251 26.3324C36.5022 25.7477 37.4117 24.9574 38.0538 23.9613C38.7172 22.9652 39.0489 21.8284 39.0489 20.5508C39.0489 19.2732 38.7279 18.1797 38.0859 17.2702C37.4438 16.3391 36.5664 15.6354 35.4535 15.159C34.3621 14.6609 33.1208 14.4119 31.7297 14.4119H26.4651V10.7741C26.4651 10.2977 26.3045 9.90793 25.9835 9.60478C25.6839 9.27997 25.2987 9.11756 24.8279 9.11756C24.3998 9.11756 24.0253 9.27997 23.7043 9.60478C23.4047 9.90793 23.2335 10.2869 23.1907 10.7416V20.0311C23.1907 21.4819 23.5117 22.7487 24.1537 23.8314C24.8172 24.8924 25.7374 25.7152 26.9145 26.2999ZM26.6931 8.88678C27.2162 9.39369 27.4682 10.0506 27.4682 10.7741V13.3969H31.7297C33.2358 13.3969 34.6176 13.6661 35.8553 14.2288C37.1215 14.773 38.1494 15.5903 38.9055 16.6849C39.6837 17.7894 40.0521 19.0951 40.0521 20.5508C40.0521 22.0144 39.6694 23.3492 38.8898 24.5223C38.1384 25.6854 37.0846 26.5892 35.7672 27.2435L35.7606 27.2468L35.7539 27.25C34.4137 27.8911 32.8586 28.1919 31.1198 28.1919C29.3945 28.1919 27.8383 27.8774 26.4788 27.2142L26.4724 27.2111C25.1389 26.5487 24.0741 25.6026 23.306 24.374L23.2996 24.3639L23.2935 24.3536C22.5447 23.0908 22.1875 21.638 22.1875 20.0311V10.6934L22.192 10.6454C22.2554 9.97232 22.5192 9.36845 22.995 8.88705C23.4914 8.3847 24.1164 8.10254 24.8279 8.10254C25.5429 8.10254 26.1922 8.35751 26.6931 8.88678ZM34.5226 23.2467C33.6023 23.8314 32.4574 24.1237 31.0877 24.1237C30.2103 24.1237 29.4184 23.9396 28.7122 23.5715C28.0273 23.2034 27.4816 22.7054 27.075 22.0774C26.6684 21.4494 26.4651 20.7457 26.4651 19.9661V17.2053H31.7297C32.9282 17.2053 33.9234 17.4868 34.7152 18.0498C35.507 18.5911 35.903 19.4248 35.903 20.5508C35.903 21.7418 35.4428 22.6404 34.5226 23.2467ZM33.982 22.3916C34.5899 21.9884 34.8998 21.4247 34.8998 20.5508C34.8998 19.6978 34.6206 19.2101 34.1536 18.8908L34.1459 18.8856L34.1384 18.8803C33.5521 18.4634 32.7715 18.2203 31.7297 18.2203H27.4682V19.9661C27.4682 20.5561 27.6188 21.0651 27.9141 21.5211C28.2228 21.9979 28.6373 22.3808 29.1772 22.6721C29.7257 22.9568 30.3556 23.1087 31.0877 23.1087C32.3134 23.1087 33.2593 22.8485 33.982 22.3916Z" fill="#E56B2E"/>
<path fill-rule="evenodd" clip-rule="evenodd" d="M19.4296 24.2534C19.7292 24.5999 19.8897 24.968 19.9111 25.3578C19.9539 25.7259 19.7934 26.094 19.4296 26.4621C19.13 26.7653 18.7233 26.906 18.2097 26.8844C17.6961 26.8844 17.2895 26.7112 16.9898 26.3647L7.78354 15.5161H4.34176V25.1954C4.34176 25.6718 4.18125 26.0724 3.86023 26.3972C3.56062 26.722 3.1647 26.8844 2.67247 26.8844C2.20164 26.8844 1.80572 26.722 1.48471 26.3972C1.16369 26.0724 1.00318 25.6718 1.00318 25.1954V3.2059C1.00318 2.70786 1.16369 2.30727 1.48471 2.00411C1.80572 1.67931 2.20164 1.5169 2.67247 1.5169C3.1647 1.5169 3.56062 1.67931 3.86023 2.00411C4.18125 2.30727 4.34176 2.70786 4.34176 3.2059V12.5279H7.6414L16.2836 2.06907C16.5832 1.70096 16.9684 1.5169 17.4393 1.5169C17.9315 1.49525 18.3274 1.65765 18.627 2.00411C18.9266 2.35057 19.0658 2.71869 19.0444 3.10846C19.0444 3.47658 18.8945 3.83386 18.5949 4.18033L10.4732 13.7297L19.4296 24.2534ZM11.7969 13.7295L20.1874 23.5883C20.599 24.0654 20.8686 24.6307 20.9109 25.2717C20.9887 26.0451 20.6205 26.6926 20.1389 27.1799C19.6045 27.7206 18.9106 27.9254 18.1887 27.8993C17.4355 27.8944 16.746 27.6241 16.2349 27.0331L16.2287 27.026L7.32266 16.5311H5.34494V25.1954C5.34494 25.9241 5.09041 26.5817 4.58164 27.1026C4.06985 27.6501 3.39992 27.8994 2.67247 27.8994C1.9466 27.8994 1.29215 27.6378 0.77535 27.1149C0.25855 26.592 0 25.9298 0 25.1954V3.2059C0 2.46988 0.24639 1.79203 0.787462 1.2742C1.30236 0.759419 1.95226 0.501879 2.67247 0.501879C3.39434 0.501879 4.05958 0.747375 4.56985 1.28612C5.10231 1.80241 5.34494 2.47551 5.34494 3.2059V11.5129H7.17252L15.5092 1.42382C15.5101 1.42273 15.511 1.42164 15.5119 1.42056C15.9969 0.826418 16.657 0.507984 17.4173 0.501965C18.1764 0.474111 18.8684 0.741844 19.382 1.33572C19.8152 1.83669 20.0775 2.4467 20.0474 3.1368C20.0396 3.79447 19.7634 4.36938 19.3528 4.84539L11.7969 13.7295Z" fill="#E56B2E"/>
<path d="M47.5039 13.1594C47.5039 10.2172 45.1188 7.83203 42.1766 7.83203V22.498C42.1766 25.4402 44.5617 27.8253 47.5039 27.8253V13.1594Z" fill="#E56B2E"/>
<path d="M50.7069 7.80447C50.6291 6.65239 51.8276 5.84806 52.8642 6.35666L58.5586 9.15045C59.5953 9.65905 59.6926 11.0991 58.7338 11.7426L53.4671 15.2772C52.5084 15.9207 51.2125 15.2849 51.1347 14.1329L50.7069 7.80447Z" fill="#E56B2E"/>
<path d="M70.5227 9.84346C70.8565 8.73805 69.8684 7.68584 68.7442 7.94947L62.5689 9.39763C61.4447 9.66127 61.0275 11.043 61.8179 11.8848L66.1597 16.5087C66.9501 17.3505 68.3554 17.0209 68.6892 15.9155L70.5227 9.84346Z" fill="#E56B2E"/>
</svg>
